<svg xmlns="http://www.w3.org/2000/svg" width="64" height="64" viewBox="0 0 64 64">
  <g fill="none" fill-rule="evenodd">
    <path fill="#FFF" d="M64 32a32 32 0 1 1-64 0 32 32 0 0 1 64 0z"/>
    <g transform="translate(4.5 4.5)">
      <path fill="#B5E237" d="M55 27.5a27.5 27.5 0 1 1-55 0 27.5 27.5 0 0 1 55 0z"/>
      <path fill="#95D600" d="M55 27.5A27.5 27.5 0 1 1 3.6 13.9a27.5 27.5 0 0 0 47.8 0A27 27 0 0 1 55 27.5z"/>
      <path fill="#85AF12" d="M3.3 40.6a27.5 27.5 0 0 0 48.4 0H3.3z"/>
      <path fill="#ED771B" d="M46.5 16.2v23h-38v-23c0-1 .7-1.7 1.6-1.7h34.8c.9 0 1.6.8 1.6 1.7z"/>
      <path fill="#A63914" d="M46.5 16.2v23H18.1V14.4H45c.9 0 1.6.8 1.6 1.7z"/>
      <path fill="#7A2D1A" d="M46.5 16.2v23h-19V14.4h17.4c.9 0 1.6.8 1.6 1.7z"/>
      <polygon fill="#747E9E" points="10.9 16.3 10.9 37.4 44.1 37.4 44.1 16.3"/>
      <polygon fill="#474F6F" points="18.1 16.3 44.1 16.3 44.1 37.4 18.1 37.4"/>
      <polygon fill="#323B5A" points="27.5 16.3 44.1 16.3 44.1 37.4 27.5 37.4"/>
      <path fill="#FFF" d="M49.2 39.1v2.2c0 .6-.6 1.2-1.2 1.2H7c-.6 0-1.2-.6-1.2-1.2V39h43.4z"/>
      <path fill="#D0F6FF" d="M49.2 39.1v2.2c0 .6-.6 1.2-1.2 1.2H18V39h31z"/>
      <path fill="#8FC9F7" d="M49.2 39.1v2.2c0 .6-.6 1.2-1.2 1.2H27.5V39h21.7z"/>
      <polygon fill="#FFF" points="18.1 29 18.1 27.8 20.1 27.8 20.1 27.2 18.1 27.2 18.1 26.2 20.3 26.2 20.3 25.6 17.3 25.6 17.3 29.6 20.4 29.6 20.4 29"/>
      <path fill="#FFF" fill-rule="nonzero" d="M22.5 26.7v.7h2.8v-.7h-2.8zm0 1.2v.7h2.8V28h-2.8z"/>
      <path fill="#FFF" d="M31.8 27.1l-.3-.3a1 1 0 0 0-.6-.2 1 1 0 0 0-.5.1l-.4.4a.9.9 0 0 0-.8-.5c-.4 0-.7.2-1 .5v-.4h-.7v3h.8v-2.1a.5.5 0 0 1 .6-.4h.2l.2.3v2.1h.8v-2l.3-.3h.6l.1.7v1.6h.8v-2.5zm3.5 1c0 .3-.2.6-.4.7l-.5.2a1 1 0 0 1-.7-.3c-.2-.2-.3-.6-.3-1.1 0-.5 0-.9.3-1 .2-.3.4-.4.7-.4.2 0 .4 0 .6.2l.3.5.8-.2-.4-.8c-.4-.3-.8-.4-1.3-.4s-1 .2-1.3.6c-.4.3-.6.9-.6 1.5 0 .7.2 1.2.6 1.6.3.3.7.5 1.3.5.4 0 .8 0 1-.3.4-.2.6-.6.7-1l-.8-.3zm1.8-2.1l.2-.2.3-.2v-.2l.1-.2-.1-.4a.6.6 0 0 0-.4-.1l-.4.1-.2.4h.3l.1-.2h.3l.1.2v.2l-.3.3-.4.4-.1.3h1.1v-.3h-.6z"/>
      <path fill="#ED771B" d="M22.3 42.5l-3.8 11a27 27 0 0 1-3.3-1.4l3.3-9.6h3.8z"/>
      <path fill="#A63914" d="M39.8 52.1c-1 .5-2.1 1-3.3 1.4l-3.8-11h3.8l3.3 9.6z"/>
      <path fill="#FFF" d="M18.6 36.7v1.8c0 .4-.3.7-.7.7H12a.7.7 0 0 1-.7-.7v-1.8h7.3z"/>
      <path fill="#D0F6FF" d="M18.6 36.7v1.8c0 .4-.3.7-.7.7h-4.4a.7.7 0 0 1-.7-.7v-1.8h5.8z"/>
      <path fill="#8FC9F7" d="M18.6 36.7v1.8c0 .4-.3.7-.7.7h-3v-2.5h3.7z"/>
      <polygon fill="#65B2FF" points="10.9 35.8 19 35.8 19 37.4 10.9 37.4"/>
      <polygon fill="#0F9BE8" points="12.8 35.8 19 35.8 19 37.4 12.8 37.4"/>
      <polygon fill="#0066E8" points="15 35.8 19 35.8 19 37.4 15 37.4"/>
    </g>
  </g>
</svg>
