<svg xmlns="http://www.w3.org/2000/svg" width="64" height="64" viewBox="0 0 64 64">
  <g fill="none" fill-rule="evenodd">
    <path fill="#FFF" d="M64 32a32 32 0 1 1-64 0 32 32 0 0 1 64 0z"/>
    <g transform="translate(4.5 4.5)">
      <path fill="#68FCDF" d="M55 27.5a27.5 27.5 0 1 1-55 0 27.5 27.5 0 0 1 55 0z"/>
      <path fill="#10E2C4" d="M55 27.5A27.5 27.5 0 1 1 3.6 13.9a27.5 27.5 0 0 0 47.8 0A27 27 0 0 1 55 27.5z"/>
      <path fill="#1ABA9F" d="M51.7 40.6a27.5 27.5 0 0 1-48.4 0h48.4z"/>
      <path fill="#A63914" d="M43.5 18.2v31.7a27.4 27.4 0 0 1-32 0V18.2c0-1.4 1.1-2.6 2.5-2.6h27c1.4 0 2.5 1.2 2.5 2.6z"/>
      <path fill="#7A2D1A" d="M43.5 18.2v31.7C39 53 33.5 55 27.5 55V15.6H41c1.4 0 2.5 1.2 2.5 2.6z"/>
      <path fill="#FFA87A" d="M43.5 16.1V50a27.4 27.4 0 0 1-5.6 3H17c-2-.7-3.9-1.8-5.6-3V16c0-1.3 1.1-2.4 2.5-2.4h27c1.4 0 2.5 1 2.5 2.4z"/>
      <path fill="#ED771B" d="M43.5 16.1V50a27.4 27.4 0 0 1-5.6 3H27.5V13.8H41c1.4 0 2.5 1 2.5 2.4z"/>
      <polygon fill="#FFF" points="13.9 15.7 41.1 15.7 41.1 50.9 13.9 50.9"/>
      <polygon fill="#D0F6FF" points="27.5 15.7 41.1 15.7 41.1 50.9 27.5 50.9"/>
      <polygon fill="#323B5A" points="32 27.5 29.7 25.3 31 24 32 24.9 33.9 22.9 35.2 24.2"/>
      <polygon fill="#323B5A" points="32 38 29.7 35.8 31 34.5 32 35.5 33.9 33.5 35.2 34.8"/>
      <path fill="#FFE955" d="M34.3 13.4v3.1c0 .7-.5 1.1-1 1.1H21.7c-.6 0-1.1-.4-1.1-1v-3.2c0-.7.5-1.1 1-1.1h11.5c.6 0 1.1.4 1.1 1z"/>
      <path fill="#FFD112" d="M34.3 13.4v3.1c0 .7-.5 1.1-1 1.1h-8.4c-.6 0-1.1-.4-1.1-1v-3.2c0-.7.5-1.1 1-1.1h8.4c.6 0 1.1.4 1.1 1z"/>
      <polygon fill="#323B5A" points="18.1 19.9 25.7 19.9 25.7 21.7 18.1 21.7"/>
      <polygon fill="#323B5A" points="29.6 19.9 36.5 19.9 36.5 21.7 29.6 21.7"/>
      <polygon fill="#65B2FF" points="16.2 23.9 25.7 23.9 25.7 26.7 16.2 26.7"/>
      <polygon fill="#65B2FF" points="16.2 29.3 25.7 29.3 25.7 32.1 16.2 32.1"/>
      <polygon fill="#65B2FF" points="16.2 34.7 25.7 34.7 25.7 37.5 16.2 37.5"/>
      <polygon fill="#65B2FF" points="16.2 40.1 25.7 40.1 25.7 42.9 16.2 42.9"/>
      <polygon fill="#65B2FF" points="16.2 45.5 25.7 45.5 25.7 48.3 16.2 48.3"/>
      <polygon fill="#10E2C4" points="29.5 29.3 34.7 29.3 34.7 32.1 29.5 32.1"/>
      <polygon fill="#10E2C4" points="29.5 40.1 34.7 40.1 34.7 42.9 29.5 42.9"/>
      <polygon fill="#10E2C4" points="29.5 45.5 34.7 45.5 34.7 48.3 29.5 48.3"/>
      <path fill="#FF9F00" d="M34.3 13.4v3.1c0 .7-.5 1.1-1 1.1h-5.8v-5.3h5.7c.6 0 1.1.4 1.1 1z"/>
      <path fill="#FFE955" d="M50.4 25.6v17.2a27.6 27.6 0 0 1-2.6 3.3l-.3.2-1 1V25.6c0-.6.2-1.1.4-1.6l.6-1.7.6-1.5.4-.2c.1 0 .3 0 .3.2L50 24c.3.6.4 1.1.4 1.7z"/>
      <path fill="#FFD112" d="M50.4 25.6v17.2a27.6 27.6 0 0 1-2.6 3.3l-.3.2v-24l.6-1.5.4-.2c.1 0 .3 0 .3.2L50 24c.3.6.4 1.1.4 1.7z"/>
      <path fill="#FF9F00" d="M50.4 25.6v17.2l-2 2.5V20.6c.2 0 .4 0 .4.2L50 24c.3.6.4 1.1.4 1.7z"/>
      <path fill="#FFC0A4" d="M50.4 25.6c0-.6-.1-1.1-.3-1.6l-1.3-3.2-.3-.2c-.2 0-.3 0-.4.2l-.6 1.5L47 24a5 5 0 0 0-.3 1.7h3.8z"/>
      <path fill="#FFA87A" d="M50.4 25.6c0-.6-.1-1.1-.3-1.6l-1.3-3.2-.3-.2c-.2 0-.3 0-.4.2l-.6 1.5v3.3h2.9z"/>
      <path fill="#E3835A" d="M50.4 25.6c0-.6-.1-1.1-.3-1.6l-1.3-3.2-.3-.2v5h1.9z"/>
      <path fill="#747E9E" d="M47.8 46c0 .2-.2.2-.3.3l-1 1v-1.2h1.3z"/>
      <path fill="#474F6F" d="M47.8 46c0 .2-.2.2-.3.3v-.2h.3z"/>
      <path fill="#747E9E" d="M50 24l-1.2-3.2-.3-.2c-.2 0-.3 0-.4.2l-.6 1.5L47 24h3z"/>
      <path fill="#474F6F" d="M50 24l-1.2-3.2-.3-.2c-.2 0-.3 0-.4.2l-.6 1.5V24H50z"/>
      <path fill="#323B5A" d="M50 24l-1.2-3.2-.3-.2v3.3H50z"/>
    </g>
  </g>
</svg>
