<!-- Generated by IcoMoon.io -->
<svg version="1.1" xmlns="http://www.w3.org/2000/svg" width="35" height="32" viewBox="0 0 35 32">
<title>bullhorn</title>
<path fill="#444" d="M26.051 19.454v7.443c0 1.028-0.833 1.861-1.861 1.861v0c-0.316 0-0.614 0-1.749-0.93-1.154-0.93-3.108-2.791-5.117-3.722-1.861-0.856-3.777-0.93-5.675-0.93l2.252 6.178 0.056 0.335c0 0.514-0.416 0.93-0.93 0.93v0h-3.722c-0.409 0-0.763-0.261-0.875-0.633l-2.493-6.811h-0.354c-1.028 0-1.861-0.833-1.861-1.861v0c-2.055 0-3.722-1.666-3.722-3.722v0c0-2.055 1.666-3.722 3.722-3.722v0c0-1.028 0.833-1.861 1.861-1.861v0h5.582c2.065 0 4.131 0 6.159-0.93 2.010-0.93 3.963-2.791 5.117-3.722 1.135-0.93 1.433-0.93 1.749-0.93 1.028 0 1.861 0.833 1.861 1.861v0 7.443c1.028 0 1.861 0.833 1.861 1.861v0c0 1.028-0.833 1.861-1.861 1.861v0zM35.355 17.594c0 2.568-1.042 4.894-2.717 6.587l-2.642-2.642c1.005-1.005 1.637-2.4 1.637-3.945s-0.633-2.94-1.637-3.945l2.642-2.642c1.675 1.693 2.717 4.019 2.717 6.587z"></path>
</svg>
