<!-- Generated by IcoMoon.io -->
<svg version="1.1" xmlns="http://www.w3.org/2000/svg" width="32" height="32" viewBox="0 0 32 32">
<title>cake</title>
<path fill="#444" d="M16 8.727c1.615 0 2.909-1.309 2.909-2.909 0-0.553-0.145-1.062-0.422-1.498l-2.487-4.32-2.487 4.32c-0.276 0.436-0.422 0.945-0.422 1.498 0 1.607 1.302 2.909 2.909 2.909zM22.691 23.273l-1.556-1.571-1.571 1.571c-1.891 1.876-5.207 1.891-7.113 0l-1.542-1.571-1.6 1.571c-0.945 0.931-2.211 1.455-3.549 1.455-1.062 0-2.036-0.335-2.851-0.887v6.705c0 0.803 0.651 1.455 1.455 1.455h23.273c0.803 0 1.455-0.651 1.455-1.455v-6.705c-0.815 0.553-1.789 0.887-2.851 0.887-1.338 0-2.604-0.524-3.549-1.455zM24.727 13.091h-7.273v-2.909h-2.909v2.909h-7.273c-2.41 0-4.364 1.954-4.364 4.364v2.24c0 1.571 1.28 2.851 2.851 2.851 0.785 0 1.513-0.291 2.007-0.829l3.142-3.098 3.069 3.098c1.076 1.076 2.953 1.076 4.029 0l3.084-3.098 3.127 3.098c0.509 0.538 1.236 0.829 2.007 0.829 1.571 0 2.865-1.28 2.865-2.851v-2.24c0-2.41-1.954-4.364-4.364-4.364z"></path>
</svg>
