<!-- Generated by IcoMoon.io -->
<svg version="1.1" xmlns="http://www.w3.org/2000/svg" width="32" height="32" viewBox="0 0 32 32">
<title>checkbox-multiple-marked-circle</title>
<path fill="#444" d="M19.2 1.6c-7.069 0-12.8 5.731-12.8 12.8s5.731 12.8 12.8 12.8c7.069 0 12.8-5.731 12.8-12.8s-5.731-12.8-12.8-12.8zM4.688 7.712c-2.96 2.432-4.688 6.064-4.688 9.888 0 7.069 5.731 12.8 12.8 12.8 1.024 0 2.032-0.128 3.008-0.368-2.816-0.624-5.408-2.032-7.536-3.968-3.12-1.664-5.072-4.928-5.072-8.464 0-0.48 0.048-0.944 0.112-1.424-0.064-0.592-0.112-1.184-0.112-1.776 0-2.304 0.512-4.592 1.488-6.688zM25.744 8.128l2.256 2.272-10.4 10.4-6.064-6.064 2.272-2.272 3.792 3.808z"></path>
</svg>
