<!-- Generated by IcoMoon.io -->
<svg version="1.1" xmlns="http://www.w3.org/2000/svg" width="24" height="32" viewBox="0 0 24 32">
<title>child</title>
<path fill="#444" d="M17.591 13.482v16.194c0 0.603-0.225 1.12-0.674 1.553s-0.987 0.649-1.613 0.649c-0.626 0-1.164-0.216-1.613-0.649s-0.674-0.95-0.674-1.553v-7.547h-1.307v7.547c0 0.603-0.225 1.12-0.674 1.553s-0.987 0.649-1.613 0.649c-0.626 0-1.164-0.216-1.613-0.649s-0.674-0.95-0.674-1.553l0.134-15.019c0 0-1.573 3.596-2.993 6.001-1.176 1.992-4.277 0.343-3.468-1.235 0.878-1.712 2.632-5.090 3.971-7.928 1.679-2.766 9.179-0.135 11.341-1.943s4.656-4.481 4.656-4.481c0.381-0.367 0.844-0.55 1.389-0.55s1.007 0.183 1.389 0.55c0.381 0.367 0.572 0.812 0.572 1.336s-0.191 0.97-0.572 1.336l-5.963 5.739zM15.749 4.52c0 1.217-0.357 2.254-1.071 3.112s-1.578 1.286-2.593 1.286c-1.014 0-1.878-0.429-2.593-1.286s-1.071-1.894-1.071-3.112c0-1.217 0.357-2.254 1.071-3.112s1.578-1.286 2.593-1.286c1.014 0 1.878 0.429 2.593 1.286s1.071 1.894 1.071 3.112v0z"></path>
</svg>
