<!-- Generated by IcoMoon.io -->
<svg version="1.1" xmlns="http://www.w3.org/2000/svg" width="39" height="32" viewBox="0 0 39 32">
<title>classlog</title>
<path fill="#444" d="M7.003 18.778h-2.708c-1.105 0-2.035-0.241-2.789-0.723s-1.132-1.188-1.132-2.116c0-4.202 0.835-6.304 2.506-6.304 0.081 0 0.374 0.125 0.879 0.375s1.162 0.503 1.971 0.759c0.808 0.256 1.61 0.384 2.405 0.384 0.903 0 1.799-0.137 2.688-0.411-0.067 0.44-0.101 0.833-0.101 1.179 0 1.655 0.546 3.179 1.637 4.571-2.183 0.060-3.968 0.821-5.356 2.286zM29.111 30.882c-0.759 0.745-1.769 1.118-3.028 1.118h-13.64c-1.259 0-2.268-0.373-3.028-1.118s-1.139-1.761-1.139-3.048c0-0.568 0.018-1.123 0.055-1.665s0.109-1.126 0.219-1.753c0.109-0.627 0.247-1.209 0.414-1.745s0.39-1.059 0.671-1.568c0.281-0.509 0.603-0.944 0.968-1.303s0.809-0.646 1.334-0.86c0.525-0.214 1.105-0.322 1.74-0.322 0.104 0 0.328 0.115 0.671 0.346s0.723 0.488 1.139 0.772c0.416 0.284 0.973 0.541 1.67 0.772s1.399 0.346 2.107 0.346c0.707 0 1.41-0.115 2.107-0.346s1.254-0.488 1.67-0.772c0.416-0.284 0.796-0.541 1.139-0.772s0.567-0.346 0.671-0.346c0.635 0 1.215 0.107 1.74 0.322s0.97 0.501 1.334 0.86c0.364 0.359 0.687 0.793 0.968 1.303s0.505 1.032 0.671 1.568c0.166 0.536 0.304 1.118 0.414 1.745s0.182 1.212 0.218 1.753c0.036 0.541 0.055 1.096 0.055 1.665 0 1.287-0.38 2.303-1.139 3.048zM10.092 7.804c-0.795 0.893-1.755 1.339-2.879 1.339s-2.084-0.446-2.879-1.339c-0.795-0.893-1.193-1.97-1.193-3.232s0.398-2.339 1.193-3.232c0.795-0.893 1.755-1.339 2.879-1.339s2.084 0.446 2.879 1.339c0.795 0.893 1.193 1.97 1.193 3.232s-0.398 2.339-1.193 3.232zM25.257 11.429c0 1.893-0.585 3.509-1.756 4.848s-2.583 2.009-4.237 2.009c-1.654 0-3.067-0.67-4.237-2.009s-1.756-2.955-1.756-4.848c0-1.893 0.585-3.509 1.756-4.848s2.583-2.009 4.237-2.009c1.654 0 3.067 0.67 4.237 2.009s1.756 2.955 1.756 4.848v0zM38.483 15.939c0 0.929-0.377 1.634-1.132 2.116s-1.684 0.723-2.789 0.723h-2.708c-1.388-1.464-3.173-2.226-5.356-2.286 1.091-1.393 1.637-2.917 1.637-4.571 0-0.345-0.034-0.738-0.101-1.179 0.889 0.274 1.785 0.411 2.688 0.411 0.795 0 1.597-0.128 2.405-0.384s1.465-0.509 1.971-0.759c0.505-0.25 0.798-0.375 0.879-0.375 1.671 0 2.506 2.101 2.506 6.304v0zM34.815 7.804c-0.795 0.893-1.755 1.339-2.879 1.339s-2.084-0.446-2.879-1.339c-0.795-0.893-1.193-1.97-1.193-3.232s0.398-2.339 1.193-3.232c0.795-0.893 1.755-1.339 2.879-1.339s2.084 0.446 2.879 1.339c0.795 0.893 1.193 1.97 1.193 3.232s-0.398 2.339-1.193 3.232z"></path>
</svg>
