<!-- Generated by IcoMoon.io -->
<svg version="1.1" xmlns="http://www.w3.org/2000/svg" width="46" height="32" viewBox="0 0 46 32">
<title>column-unknown</title>
<path fill="#444" d="M17.233 0c1.767 0 3.2 1.433 3.2 3.2v25.6c0 1.767-1.433 3.2-3.2 3.2h-14.4v-32h14.4zM6.033 12.8v6.4h11.2v-6.4h-11.2zM6.033 22.4v6.4h11.2v-6.4h-11.2zM6.033 3.2v6.4h11.2v-6.4h-11.2z"></path>
<path fill="#444" d="M34.5 2c-4.786 0-8.667 3.88-8.667 8.667h4.333c0-2.393 1.94-4.333 4.333-4.333s4.333 1.94 4.333 4.333c0 4.333-6.5 3.792-6.5 10.833h4.333c0-4.875 6.5-5.417 6.5-10.833 0-4.786-3.88-8.667-8.667-8.667v0z"></path>
<path fill="#444" d="M32.333 28h4.333v-4.333h-4.333z"></path>
</svg>
