<!-- Generated by IcoMoon.io -->
<svg version="1.1" xmlns="http://www.w3.org/2000/svg" width="32" height="32" viewBox="0 0 32 32">
<title>comments</title>
<path fill="#444" d="M11.2 31.998c-0.884 0-1.6-0.716-1.6-1.6v-4.8h-6.399c-1.767 0-3.2-1.433-3.2-3.2l0.015-19.201c0-1.768 1.417-3.2 3.184-3.2h25.598c1.766 0 3.2 1.432 3.2 3.2v19.198c0 1.766-1.433 3.2-3.2 3.2l-9.752 0.003-5.929 5.929c-0.308 0.308-0.711 0.464-1.115 0.468l-0.002 0.002h-0.8zM12.8 22.399v4.92l4.92-4.92h11.078v-19.198h-25.598v19.198h9.599zM6.401 8.001h19.198v3.2h-19.198v-3.2zM6.401 14.4h14.399v3.2h-14.399v-3.2z"></path>
</svg>
