<!-- Generated by IcoMoon.io -->
<svg version="1.1" xmlns="http://www.w3.org/2000/svg" width="32" height="32" viewBox="0 0 32 32">
<title>face-cool</title>
<path fill="#444" d="M27.2 12.8c0 2.208-3.392 4-5.6 4s-4.4-1.792-4.4-4h-2.4c0 2.208-2.192 4-4.4 4s-5.6-1.792-5.6-4h-1.2c-0.256 1.024-0.4 2.096-0.4 3.2 0 7.069 5.731 12.8 12.8 12.8s12.8-5.731 12.8-12.8c0-1.104-0.144-2.176-0.4-3.2h-1.2zM16 3.2c-4.736 0-8.88 2.576-11.088 6.4h22.176c-2.208-3.824-6.352-6.4-11.088-6.4zM32 16c0 8.837-7.163 16-16 16s-16-7.163-16-16c0-8.837 7.163-16 16-16s16 7.163 16 16zM16 24.368c-2.8 0-5.264-1.168-6.704-2.896l2.272-2.272c0.72 1.152 2.432 1.968 4.432 1.968s3.712-0.816 4.432-1.968l2.272 2.272c-1.44 1.728-3.904 2.896-6.704 2.896z"></path>
</svg>
