<!-- Generated by IcoMoon.io -->
<svg version="1.1" xmlns="http://www.w3.org/2000/svg" width="32" height="32" viewBox="0 0 32 32">
<title>face-happy</title>
<path fill="#444" d="M28.8 16c0-7.069-5.731-12.8-12.8-12.8s-12.8 5.731-12.8 12.8c0 7.069 5.731 12.8 12.8 12.8 3.395 0 6.651-1.349 9.051-3.749s3.749-5.656 3.749-9.051v0zM32 16c0 8.837-7.163 16-16 16-4.243 0-8.313-1.686-11.314-4.686s-4.686-7.070-4.686-11.314c0-4.243 1.686-8.313 4.686-11.314s7.070-4.686 11.314-4.686c4.243 0 8.313 1.686 11.314 4.686s4.686 7.070 4.686 11.314v0zM12.8 12c0 1.28-1.12 2.4-2.4 2.4s-2.4-1.12-2.4-2.4c0-1.28 1.12-2.4 2.4-2.4s2.4 1.12 2.4 2.4v0zM24 12c0 1.28-1.12 2.4-2.4 2.4s-2.4-1.12-2.4-2.4c0-1.28 1.12-2.4 2.4-2.4s2.4 1.12 2.4 2.4v0zM16 24.983c-4.308 0-6.495-2.399-7.935-4.127l2.272-1.78c0 0 1.97 3.077 5.663 3.077s5.663-3.077 5.663-3.077l2.272 1.78c-1.44 1.728-3.627 4.127-7.935 4.127z"></path>
</svg>
