<!-- Generated by IcoMoon.io -->
<svg version="1.1" xmlns="http://www.w3.org/2000/svg" width="32" height="32" viewBox="0 0 32 32">
<title>face-talking</title>
<path fill="#444" d="M28.8 16c0-7.069-5.731-12.8-12.8-12.8s-12.8 5.731-12.8 12.8c0 7.069 5.731 12.8 12.8 12.8 3.395 0 6.651-1.349 9.051-3.749s3.749-5.656 3.749-9.051v0zM32 16c0 8.837-7.163 16-16 16-4.243 0-8.313-1.686-11.314-4.686s-4.686-7.070-4.686-11.314c0-4.243 1.686-8.313 4.686-11.314s7.070-4.686 11.314-4.686c4.243 0 8.313 1.686 11.314 4.686s4.686 7.070 4.686 11.314v0zM21.6 9.6c1.28 0 2.4 1.12 2.4 2.4s-1.12 2.4-2.4 2.4c-1.28 0-2.4-1.12-2.4-2.4s1.12-2.4 2.4-2.4v0zM12.8 12c0 1.28-1.12 2.4-2.4 2.4s-2.4-1.12-2.4-2.4c0-1.28 1.12-2.4 2.4-2.4s2.4 1.12 2.4 2.4v0zM22.154 20.923c0 1.231-2.462 3.077-6.154 3.077s-6.154-1.846-6.154-3.077c0-1.231 3.692-1.231 6.154-1.231s6.154 0 6.154 1.231z"></path>
</svg>
