<!-- Generated by IcoMoon.io -->
<svg version="1.1" xmlns="http://www.w3.org/2000/svg" width="32" height="32" viewBox="0 0 32 32">
<title>formula-column</title>
<path fill="#444" d="M0 3.039v25.921c0 1.664 1.361 3.039 3.039 3.039h25.921c1.664 0 3.039-1.361 3.039-3.039v-25.921c0-1.664-1.361-3.039-3.039-3.039h-25.921c-1.664 0-3.039 1.361-3.039 3.039zM18.057 6.581c-2.367 0-4.228 0.839-5.584 2.516s-2.034 3.993-2.034 6.946c0 3.091 0.652 5.429 1.956 7.015s3.191 2.378 5.662 2.378c1.069 0 2.103-0.106 3.102-0.319s2.040-0.485 3.12-0.819v3.533c-1.976 0.747-4.217 1.12-6.722 1.12-3.688 0-6.521-1.117-8.497-3.352s-2.964-5.432-2.964-9.591c0-2.62 0.48-4.912 1.439-6.877s2.347-3.47 4.162-4.516c1.815-1.046 3.947-1.568 6.394-1.568 2.574 0 4.952 0.54 7.135 1.62l-1.482 3.43c-0.85-0.402-1.749-0.755-2.697-1.060s-1.945-0.457-2.99-0.457v0z"></path>
</svg>
