<!-- Generated by IcoMoon.io -->
<svg version="1.1" xmlns="http://www.w3.org/2000/svg" width="32" height="32" viewBox="0 0 32 32">
<title>formula</title>
<path fill="#444" d="M22.427 21.775c-1.147 1.23-2.044 2.234-3.084 3.238-0.645 0.615-1.147 1.004-1.434 1.004s-0.502-0.324-0.645-0.907c-0.036-0.194-0.215-0.421-0.359-0.421-0.179 0-0.394 0.032-0.789 0.356-0.645 0.486-1.040 1.327-1.040 1.942 0 0.583 0.43 1.166 1.291 1.166 0.681 0 1.829-0.356 3.872-2.558 0.968-1.004 2.044-2.266 2.617-2.784l1.363 3.076c0.61 1.36 1.147 2.266 2.115 2.266 1.363 0 2.617-1.878 3.119-3.982 0.036-0.324-0.502-0.453-0.753-0.194-0.574 0.939-1.183 1.91-1.685 1.91-0.43 0-0.789-0.712-1.291-1.845l-1.327-3.076c3.227-3.529 4.195-4.435 4.84-4.435 0.359 0 0.61 0.356 0.753 0.809 0.108 0.356 0.251 0.55 0.502 0.55 0.538 0 1.434-0.745 1.434-1.878 0-0.745-0.466-1.522-1.434-1.522-1.147 0-2.295 0.939-4.052 2.817-1.793 1.91-2.115 2.331-2.438 2.655l-1.542-3.788c-0.502-1.23-0.968-1.684-1.578-1.684-0.896 0-2.582 1.684-3.227 3.464-0.036 0.421 0.287 0.615 0.645 0.453 0.466-0.648 1.004-1.651 1.613-1.651 0.359 0 0.574 0.55 1.004 1.522l1.506 3.497zM18.393 11.662c0.538-0.356 0.61-0.842 0.359-1.198h-4.482c0.968-3.076 1.685-5.374 3.335-7.543 0.825-1.101 1.793-1.748 2.582-1.748 0.896 0 1.9 0.583 2.008 2.363 0.036 0.227 0.179 0.518 0.502 0.518 0.574 0 1.542-1.004 1.542-1.845 0-1.295-1.434-2.137-2.761-2.137-2.080 0-3.944 0.777-5.737 2.687-2.115 2.266-3.084 4.792-4.016 7.705h-3.084c-0.466 0.291-0.61 0.906-0.251 1.198h2.976c-1.721 5.277-2.976 10.846-4.625 15.961-0.825 2.493-1.578 2.72-2.295 2.72-0.789 0-1.864-0.518-2.725-1.327-0.215-0.227-0.538-0.324-0.825-0.13-0.394 0.259-0.825 0.809-0.825 1.457 0 0.486 0.681 1.586 2.617 1.586 2.115 0 3.765-1.295 4.303-1.748 0.717-0.648 1.9-2.299 2.833-5.212 1.147-3.561 2.115-6.669 3.191-10.295 0.43-1.425 0.717-2.46 0.932-3.011h4.446z"></path>
</svg>
