<svg xmlns="http://www.w3.org/2000/svg" width="32" height="32" viewBox="0 0 32 32">
  <path fill="#F50057" d="M11.2 32c-.9 0-1.6-.7-1.6-1.6v-4.8H3.2A3.2 3.2 0 0 1 0 22.4V3.2C0 1.4 1.4 0 3.2 0h25.6C30.6 0 32 1.4 32 3.2v19.2c0 1.8-1.4 3.2-3.2 3.2H19l-5.9 6c-.3.2-.7.4-1.1.4h-.8zm1.5-9.9V27l5-4.9h11.4V3H3v19.1h9.8zm0-10.1c1 0 1.8-.9 1.8-2a2 2 0 0 0-1.9-2c-1 0-2 .9-2 2s1 2 2 2zm6.7 0c1 0 2-.9 2-2a2 2 0 0 0-2-2c-1 0-2 .9-2 2s1 2 2 2zM11 15.2a44.3 44.3 0 0 1 10 0 .6.6 0 0 1 .4 1A6.8 6.8 0 0 1 16 19c-2.1 0-4-1-5.4-2.8a.6.6 0 0 1 .4-1z"/>
</svg>
