<!-- Generated by IcoMoon.io -->
<svg version="1.1" xmlns="http://www.w3.org/2000/svg" width="40" height="32" viewBox="0 0 40 32">
<title>instructions</title>
<path fill="#444" d="M7.809 3.81c-1.683 0-3.048 1.364-3.048 3.048v18.286c0 1.524 1.524 3.048 3.048 3.048h24.381c1.683 0 3.048-1.364 3.048-3.048v-18.286c0-1.683-1.364-3.048-3.048-3.048h-24.381zM13.905 22.095h-3.048v-3.048h3.048v3.048zM13.905 17.524h-3.048v-3.048h3.048v3.048zM13.905 12.952h-3.048v-3.048h3.048v3.048zM24.571 22.095h-7.619v-3.048h7.619v3.048zM29.143 17.524h-12.19v-3.048h12.19v3.048zM29.143 12.952h-12.19v-3.048h12.19v3.048z"></path>
</svg>
