<!-- Generated by IcoMoon.io -->
<svg version="1.1" xmlns="http://www.w3.org/2000/svg" width="34" height="32" viewBox="0 0 34 32">
<title>instructions-off</title>
<path fill="#444" d="M-0.758 3.84l4.571 4.571v16.762c0 1.524 1.524 3.048 3.048 3.048h16.762l4.16 4.16 1.935-1.935-28.541-28.541-1.935 1.935zM12.956 22.583h-3.048v-3.048h3.048v3.048zM9.909 18.011v-3.048l3.048 3.048h-3.048zM6.983 3.886l9.021 9.021v-2.926h12.19v3.048h-12.069l1.524 1.524h10.545v3.048h-7.497l10.651 10.667c1.63-0.076 2.941-1.402 2.941-3.048v-18.286c0-1.683-1.364-3.048-3.048-3.048h-24.259z"></path>
</svg>
