<!-- Generated by IcoMoon.io -->
<svg version="1.1" xmlns="http://www.w3.org/2000/svg" width="32" height="32" viewBox="0 0 32 32">
<title>late</title>
<path fill="#444" d="M17.778 24.889c0 0.982-0.796 1.778-1.778 1.778s-1.778-0.796-1.778-1.778c0-0.982 0.796-1.778 1.778-1.778s1.778 0.796 1.778 1.778v0zM17.778 0v7.111h-3.556v-3.413c-6.027 0.871-10.667 6.027-10.667 12.302 0 6.873 5.572 12.444 12.444 12.444s12.444-5.572 12.444-12.444c0-2.987-1.049-5.724-2.809-7.858l-9.636 9.636-2.507-2.507 12.089-12.089v0.036c3.893 2.916 6.418 7.538 6.418 12.782 0 8.837-7.163 16-16 16s-16-7.163-16-16c0-8.837 7.163-16 16-16h1.778zM5.333 16c0-0.982 0.796-1.778 1.778-1.778s1.778 0.796 1.778 1.778c0 0.982-0.796 1.778-1.778 1.778s-1.778-0.796-1.778-1.778v0zM26.667 16c0 0.982-0.796 1.778-1.778 1.778s-1.778-0.796-1.778-1.778c0-0.982 0.796-1.778 1.778-1.778s1.778 0.796 1.778 1.778z"></path>
</svg>
