<!-- Generated by IcoMoon.io -->
<svg version="1.1" xmlns="http://www.w3.org/2000/svg" width="32" height="32" viewBox="0 0 32 32">
<title>lightbulb-on</title>
<path fill="#444" d="M27.636 14.545h4.364v2.909h-4.364v-2.909zM0 14.545h4.364v2.909h-4.364v-2.909zM17.455 0v4.364h-2.909v-4.364h2.909zM5.702 3.636l3.098 3.113-2.065 2.051-3.098-3.084 2.065-2.080zM23.2 6.735l3.084-3.098 2.080 2.080-3.098 3.084-2.065-2.065zM16 7.273c4.82 0 8.727 3.907 8.727 8.727v0c0 3.229-1.76 6.051-4.364 7.564v2.618c0 0.803-0.651 1.455-1.455 1.455v0h-5.818c-0.803 0-1.455-0.651-1.455-1.455v0-2.618c-2.604-1.513-4.364-4.335-4.364-7.564 0-4.82 3.907-8.727 8.727-8.727v0zM18.909 29.091v1.455c0 0.803-0.651 1.455-1.455 1.455v0h-2.909c-0.803 0-1.455-0.651-1.455-1.455v0-1.455h5.818zM14.545 24.727h2.909v-3.098c2.516-0.64 4.364-2.924 4.364-5.629 0-3.213-2.605-5.818-5.818-5.818v0c-3.213 0-5.818 2.605-5.818 5.818v0c0 2.705 1.847 4.989 4.364 5.629v3.098z"></path>
</svg>
