<!-- Generated by IcoMoon.io -->
<svg version="1.1" xmlns="http://www.w3.org/2000/svg" width="70" height="32" viewBox="0 0 70 32">
<title>multiple-person-action</title>
<path fill="#444" d="M33.141 19.401c-0.633 0-1.353 0-2.116 0.105 2.531 1.764 4.298 4.095 4.298 7.244v5.25h13.091v-5.25c0-4.893-10.189-7.349-15.273-7.349zM15.686 19.401c-5.084 0-15.273 2.457-15.273 7.349v5.25h30.545v-5.25c0-4.893-10.189-7.349-15.273-7.349zM16.434 17.262c4.028 0 7.293-3.864 7.293-8.631s-3.265-8.631-7.293-8.631c-4.028 0-7.293 3.864-7.293 8.631s3.265 8.631 7.293 8.631zM33.892 17.262c4.030 0 7.297-3.864 7.297-8.631s-3.267-8.631-7.297-8.631c-4.030 0-7.297 3.864-7.297 8.631s3.267 8.631 7.297 8.631zM55.19 16.937l-9.063-9.063 2.84-2.84 6.223 6.203 11.258-11.238 2.84 2.84-14.097 14.097z"></path>
</svg>
