<!-- Generated by IcoMoon.io -->
<svg version="1.1" xmlns="http://www.w3.org/2000/svg" width="35" height="32" viewBox="0 0 35 32">
<title>NA</title>
<path fill="#444" d="M13.063 23.969h-3.142l-7.711-12.648h-0.086l0.054 0.706c0.1 1.346 0.15 2.577 0.15 3.691v8.251h-2.327v-15.872h3.11l7.69 12.583h0.064c-0.014-0.166-0.043-0.773-0.086-1.818s-0.064-1.862-0.064-2.448v-8.316h2.349v15.872zM21.998 8.096l-5.582 15.872h-2.278l5.592-15.872h2.268zM32.013 23.969l-1.566-4.408h-5.994l-1.533 4.408h-2.702l5.865-15.937h2.788l5.865 15.937h-2.724zM29.772 17.325l-1.469-4.321c-0.107-0.29-0.256-0.745-0.445-1.368s-0.32-1.078-0.391-1.368c-0.193 0.89-0.475 1.864-0.847 2.92l-1.415 4.136h4.568z"></path>
</svg>
