<!-- Generated by IcoMoon.io -->
<svg version="1.1" xmlns="http://www.w3.org/2000/svg" width="26" height="32" viewBox="0 0 26 32">
<title>paperclip</title>
<path fill="#444" d="M18.615 7.273v16.727c0 3.215-2.604 5.818-5.818 5.818s-5.818-2.604-5.818-5.818v-18.182c0-2.007 1.629-3.636 3.636-3.636s3.636 1.629 3.636 3.636v15.273c0 0.8-0.655 1.455-1.455 1.455s-1.455-0.655-1.455-1.455v-13.818h-2.182v13.818c0 2.007 1.629 3.636 3.636 3.636s3.636-1.629 3.636-3.636v-15.273c0-3.215-2.604-5.818-5.818-5.818s-5.818 2.604-5.818 5.818v18.182c0 4.422 3.578 8 8 8s8-3.578 8-8v-16.727h-2.182z"></path>
</svg>
