<!-- Generated by IcoMoon.io -->
<svg version="1.1" xmlns="http://www.w3.org/2000/svg" width="27" height="32" viewBox="0 0 27 32">
<title>pencil</title>
<path fill="#444" d="M6.382 27.587l1.648-1.648-4.255-4.255-1.648 1.648v1.937h2.317v2.317h1.937zM15.851 10.786c0-0.235-0.163-0.398-0.398-0.398-0.109 0-0.217 0.036-0.308 0.127l-9.813 9.813c-0.091 0.091-0.127 0.199-0.127 0.308 0 0.235 0.163 0.398 0.398 0.398 0.109 0 0.217-0.036 0.308-0.127l9.813-9.813c0.091-0.091 0.127-0.199 0.127-0.308zM14.873 7.31l7.532 7.532-15.063 15.063h-7.532v-7.532zM27.238 9.048c0 0.616-0.253 1.213-0.67 1.629l-3.005 3.005-7.532-7.532 3.005-2.987c0.416-0.434 1.014-0.688 1.629-0.688s1.213 0.253 1.648 0.688l4.255 4.236c0.416 0.434 0.67 1.032 0.67 1.648z"></path>
</svg>
