<!-- Generated by IcoMoon.io -->
<svg version="1.1" xmlns="http://www.w3.org/2000/svg" width="68" height="32" viewBox="0 0 68 32">
<title>person-many-match</title>
<path fill="#444" d="M32.731 19.401c-0.633 0-1.353 0-2.116 0.105 2.531 1.764 4.298 4.095 4.298 7.244v5.25h13.091v-5.25c0-4.893-10.189-7.349-15.273-7.349zM15.276 19.401c-5.084 0-15.273 2.457-15.273 7.349v5.25h30.545v-5.25c0-4.893-10.189-7.349-15.273-7.349zM16.024 17.262c4.028 0 7.293-3.864 7.293-8.631s-3.265-8.631-7.293-8.631c-4.028 0-7.293 3.864-7.293 8.631s3.265 8.631 7.293 8.631zM33.482 17.262c4.030 0 7.297-3.864 7.297-8.631s-3.267-8.631-7.297-8.631c-4.030 0-7.297 3.864-7.297 8.631s3.267 8.631 7.297 8.631z"></path>
<path fill="#444" d="M55.337 30.222h4.889v-4.741h-4.889v4.741zM57.781 1.778c-5.4 0-9.778 4.245-9.778 9.481h4.889c0-2.618 2.189-4.741 4.889-4.741s4.889 2.123 4.889 4.741c0 4.741-7.333 4.148-7.333 11.852h4.889c0-5.333 7.333-5.926 7.333-11.852 0-5.236-4.378-9.481-9.778-9.481z"></path>
</svg>
