<!-- Generated by IcoMoon.io -->
<svg version="1.1" xmlns="http://www.w3.org/2000/svg" width="32" height="32" viewBox="0 0 32 32">
<title>portrait</title>
<path fill="#444" d="M28.444 28.444h-24.889v-24.889h24.889zM28.444-0h-24.889c-1.964 0-3.556 1.592-3.556 3.556v0 24.889c0 1.964 1.592 3.556 3.556 3.556v0h24.889c1.964 0 3.556-1.592 3.556-3.556v0-24.889c0-1.973-1.6-3.556-3.556-3.556zM24 23.556c0-2.667-5.333-4-8-4s-8 1.333-8 4v1.333h16zM16 16.444c2.209 0 4-1.791 4-4v0c0-2.209-1.791-4-4-4v0c-2.209 0-4 1.791-4 4v0c0 2.209 1.791 4 4 4v0z"></path>
</svg>
