<!-- Generated by IcoMoon.io -->
<svg version="1.1" xmlns="http://www.w3.org/2000/svg" width="32" height="32" viewBox="0 0 32 32">
<title>schedule</title>
<path fill="#444" d="M16 0c-5.37 0-9.739 4.369-9.739 9.739 0 5.379 4.36 9.739 9.739 9.739 5.37 0 9.739-4.355 9.739-9.739 0-5.37-4.369-9.739-9.739-9.739zM16 2.991c3.715 0 6.748 3.019 6.748 6.748s-3.033 6.748-6.748 6.748c-3.727 0-6.748-3.021-6.748-6.748s3.021-6.748 6.748-6.748zM14.609 5.565v5.134l4.438 2.56 1.043-1.809-3.395-1.962v-3.923zM20.174 20.87v4.174h-16.696v2.783h16.696v4.174l5.565-5.565zM25.739 26.435v5.565h2.783v-11.13h-2.783z"></path>
</svg>
