<!-- Generated by IcoMoon.io -->
<svg version="1.1" xmlns="http://www.w3.org/2000/svg" width="32" height="32" viewBox="0 0 32 32">
<title>search-noresults</title>
<path fill="#444" d="M32 29.538c0 0.667-0.244 1.244-0.731 1.731s-1.064 0.731-1.731 0.731c-0.692 0-1.269-0.244-1.731-0.731l-6.596-6.577c-2.295 1.59-4.853 2.385-7.673 2.385-1.833 0-3.587-0.356-5.26-1.067s-3.115-1.673-4.327-2.885c-1.212-1.212-2.173-2.654-2.885-4.327s-1.067-3.426-1.067-5.26c0-1.833 0.356-3.587 1.067-5.26s1.673-3.115 2.885-4.327c1.212-1.212 2.654-2.173 4.327-2.885s3.426-1.067 5.26-1.067c1.833 0 3.587 0.356 5.26 1.067s3.115 1.673 4.327 2.885c1.212 1.212 2.173 2.654 2.885 4.327s1.067 3.426 1.067 5.26c0 2.821-0.795 5.378-2.385 7.673l6.596 6.596c0.474 0.474 0.712 1.051 0.712 1.731v0zM23.926 13.626c0-2.87-1.014-5.325-3.042-7.365s-4.468-3.060-7.321-3.060c-2.853 0-5.293 1.020-7.321 3.060s-3.042 4.495-3.042 7.365c0 2.87 1.014 5.325 3.042 7.365s4.468 3.060 7.321 3.060c2.853 0 5.293-1.020 7.321-3.060s3.042-4.495 3.042-7.365v0zM17.694 9.157c1.105 0 2.073 0.973 2.073 2.085s-0.967 2.085-2.073 2.085c-1.105 0-2.073-0.973-2.073-2.085s0.967-2.085 2.073-2.085v0zM11.787 11.243c0 1.112-0.967 2.085-2.073 2.085s-2.073-0.973-2.073-2.085c0-1.112 0.967-2.085 2.073-2.085s2.073 0.973 2.073 2.085v0zM13.616 16.049c2.091 0 3.931 0.827 5.007 2.079l-1.697 1.631c-0.538-0.838-1.816-1.413-3.31-1.413s-2.772 0.574-3.31 1.413l-1.697-1.631c1.075-1.252 2.916-2.079 5.007-2.079v0z"></path>
</svg>
