<!-- Generated by IcoMoon.io -->
<svg version="1.1" xmlns="http://www.w3.org/2000/svg" width="32" height="32" viewBox="0 0 32 32">
<title>SEN</title>
<path fill="#444" d="M8.359 19.561q0 2.076-1.259 3.258t-3.474 1.182-3.626-0.82v-2.406q0.893 0.5 1.893 0.788 1.009 0.287 1.876 0.287 1.268 0 1.867-0.575 0.607-0.575 0.607-1.544 0-0.873-0.554-1.48t-2.286-1.437q-1.786-0.862-2.519-1.969t-0.732-2.661q0-1.948 1.161-3.066t3.117-1.118q1.876 0 3.733 0.979l-0.679 2.076q-1.742-0.873-3.108-0.873-1.036 0-1.572 0.543-0.536 0.532-0.536 1.416 0 0.607 0.214 1.043 0.214 0.426 0.706 0.809t1.768 1.011q1.438 0.713 2.108 1.331t0.982 1.395 0.313 1.831z"></path>
<path fill="#444" d="M18.291 23.787h-7.386v-15.564h7.386v2.15h-5.251v4.237h4.921v2.129h-4.921v4.886h5.251v2.161z"></path>
<path fill="#444" d="M32 23.787h-2.617l-6.421-12.402h-0.071l0.045 0.692q0.125 1.98 0.125 3.619v8.091h-1.938v-15.564h2.59l6.404 12.338h0.054q-0.018-0.245-0.071-1.778-0.054-1.544-0.054-2.406v-8.154h1.956v15.564z"></path>
</svg>
