<!-- Generated by IcoMoon.io -->
<svg version="1.1" xmlns="http://www.w3.org/2000/svg" width="31" height="32" viewBox="0 0 31 32">
<title>send-later</title>
<path fill="#444" d="M-0 10.322c0 5.014 4.064 9.078 9.078 9.078 5.006 0 9.078-4.059 9.078-9.078 0-5.006-4.072-9.078-9.078-9.078s-9.078 4.072-9.078 9.078zM9.078 4.033c3.463 0 6.29 2.814 6.29 6.29s-2.827 6.29-6.29 6.29c-3.474 0-6.29-2.816-6.29-6.29s2.816-6.29 6.29-6.29zM7.781 6.432v4.785l4.137 2.386 0.973-1.686-3.164-1.829v-3.657zM30.491 10.266c0.251 0.184 0.354 0.43 0.308 0.736l-2.919 17.671c-0.038 0.222-0.16 0.395-0.365 0.518-0.106 0.061-0.224 0.092-0.354 0.092-0.084 0-0.175-0.019-0.274-0.058l-6.010-2.474-3.398 3.762c-0.137 0.161-0.316 0.242-0.536 0.242-0.106 0-0.194-0.015-0.262-0.046-0.144-0.054-0.258-0.144-0.342-0.27s-0.125-0.267-0.125-0.42v-5.2l-5.382-2.22c-0.281-0.107-0.433-0.318-0.456-0.633-0.023-0.299 0.099-0.525 0.365-0.679l18.975-11.044c0.266-0.161 0.525-0.153 0.775 0.023zM26.587 27.507l2.519-15.216-16.348 9.512 3.83 1.576 9.838-7.349-5.449 9.167 5.609 2.312z"></path>
</svg>
