<!-- Generated by IcoMoon.io -->
<svg version="1.1" xmlns="http://www.w3.org/2000/svg" width="32" height="32" viewBox="0 0 32 32">
<title>table-edit</title>
<path fill="#444" d="M31.582 18.169l-1.606 1.606-3.293-3.293 1.606-1.606c0.337-0.353 0.9-0.353 1.237 0l2.056 2.056c0.353 0.337 0.353 0.9 0 1.237zM16 27.149l9.751-9.735 3.293 3.293-9.735 9.751h-3.309v-3.309zM3.149-0.064h22.49c1.774 0 3.213 1.438 3.213 3.213v0 6.699l-6.153 6.153h-6.699v6.699l-2.94 2.94h-9.912c-1.774 0-3.213-1.438-3.213-3.213v0-19.277c0-1.774 1.438-3.213 3.213-3.213v0zM3.149 6.361v6.426h9.639v-6.426h-9.639zM16 6.361v6.426h9.639v-6.426h-9.639zM3.149 16v6.426h9.639v-6.426h-9.639z"></path>
</svg>
