<!-- Generated by IcoMoon.io -->
<svg version="1.1" xmlns="http://www.w3.org/2000/svg" width="32" height="32" viewBox="0 0 32 32">
<title>times-circle-o</title>
<path fill="#444" d="M16 2.667c-7.354 0-13.333 5.979-13.333 13.333s5.979 13.333 13.333 13.333c7.354 0 13.333-5.979 13.333-13.333s-5.979-13.333-13.333-13.333zM32 16c0 8.833-7.167 16-16 16s-16-7.167-16-16c0-8.833 7.167-16 16-16v0c8.833 0 16 7.167 16 16zM24.16 9.628l-1.628-1.628-6.452 6.452-6.452-6.452-1.628 1.628 6.452 6.452-6.452 6.452 1.628 1.628 6.452-6.452 6.452 6.452 1.628-1.628-6.452-6.452 6.452-6.452z"></path>
</svg>
