<!-- Generated by IcoMoon.io -->
<svg version="1.1" xmlns="http://www.w3.org/2000/svg" width="49" height="32" viewBox="0 0 49 32">
<title>tooltipedit</title>
<path fill="#444" d="M43.783 0h-30.376c-2.33 0-4.218 1.791-4.218 4l0.090 6-8.436 6 8.436 6-0.090 6c0 2.209 1.889 4 4.218 4h30.376c2.33 0 4.218-1.791 4.218-4v-24c0-2.209-1.889-4-4.218-4zM42.926 21.896v3.368h-16.842l3.629-3.368h13.213zM19.439 23.252l2.148-2.148-2.815-2.815-2.148 2.148v1.037h1.778v1.778h1.037zM27.588 9.917c-0.198-0.198-0.401-0.191-0.611 0.019l-6.482 6.482c-0.21 0.21-0.216 0.414-0.019 0.611s0.401 0.191 0.611-0.019l6.482-6.482c0.21-0.21 0.216-0.414 0.019-0.611zM27.292 7.25l5.334 5.334-12.446 12.446h-5.334v-5.334l12.446-12.446zM35.515 9.695l-1.704 1.704-5.334-5.334 1.704-1.704c0.346-0.346 0.765-0.519 1.259-0.519s0.914 0.173 1.259 0.519l2.815 2.815c0.346 0.346 0.519 0.766 0.519 1.259s-0.173 0.914-0.519 1.259z"></path>
</svg>
