<!-- Generated by IcoMoon.io -->
<svg version="1.1" xmlns="http://www.w3.org/2000/svg" width="27" height="32" viewBox="0 0 27 32">
<title>trash</title>
<path fill="#444" d="M9.714 12.667v12c0 0.375-0.292 0.667-0.667 0.667h-1.333c-0.375 0-0.667-0.292-0.667-0.667v-12c0-0.375 0.292-0.667 0.667-0.667h1.333c0.375 0 0.667 0.292 0.667 0.667zM15.048 12.667v12c0 0.375-0.292 0.667-0.667 0.667h-1.333c-0.375 0-0.667-0.292-0.667-0.667v-12c0-0.375 0.292-0.667 0.667-0.667h1.333c0.375 0 0.667 0.292 0.667 0.667zM20.381 12.667v12c0 0.375-0.292 0.667-0.667 0.667h-1.333c-0.375 0-0.667-0.292-0.667-0.667v-12c0-0.375 0.292-0.667 0.667-0.667h1.333c0.375 0 0.667 0.292 0.667 0.667zM23.048 27.75v-19.75h-18.667v19.75c0 1 0.563 1.583 0.667 1.583h17.333c0.104 0 0.667-0.583 0.667-1.583zM9.048 5.333h9.333l-1-2.437c-0.063-0.083-0.25-0.208-0.354-0.229h-6.604c-0.125 0.021-0.292 0.146-0.354 0.229zM28.381 6v1.333c0 0.375-0.292 0.667-0.667 0.667h-2v19.75c0 2.292-1.5 4.25-3.333 4.25h-17.333c-1.833 0-3.333-1.875-3.333-4.167v-19.833h-2c-0.375 0-0.667-0.292-0.667-0.667v-1.333c0-0.375 0.292-0.667 0.667-0.667h6.437l1.458-3.479c0.417-1.021 1.667-1.854 2.771-1.854h6.667c1.104 0 2.354 0.833 2.771 1.854l1.458 3.479h6.437c0.375 0 0.667 0.292 0.667 0.667z"></path>
</svg>
