<!-- Generated by IcoMoon.io -->
<svg version="1.1" xmlns="http://www.w3.org/2000/svg" width="32" height="32" viewBox="0 0 32 32">
<title>web</title>
<path fill="#444" d="M22.976 19.2c0.128-1.056 0.224-2.112 0.224-3.2s-0.096-2.144-0.224-3.2h5.408c0.256 1.024 0.416 2.096 0.416 3.2s-0.16 2.176-0.416 3.2zM20.144 28.096c0.96-1.776 1.696-3.696 2.208-5.696h4.72c-1.536 2.64-3.984 4.688-6.928 5.696zM19.744 19.2h-7.488c-0.16-1.056-0.256-2.112-0.256-3.2s0.096-2.16 0.256-3.2h7.488c0.144 1.040 0.256 2.112 0.256 3.2s-0.112 2.144-0.256 3.2zM16 28.736c-1.328-1.92-2.4-4.048-3.056-6.336h6.112c-0.656 2.288-1.728 4.416-3.056 6.336zM9.6 9.6h-4.672c1.52-2.656 3.984-4.704 6.912-5.696-0.96 1.776-1.68 3.696-2.24 5.696zM4.928 22.4h4.672c0.56 2 1.28 3.92 2.24 5.696-2.928-1.008-5.392-3.056-6.912-5.696zM3.616 19.2c-0.256-1.024-0.416-2.096-0.416-3.2s0.16-2.176 0.416-3.2h5.408c-0.128 1.056-0.224 2.112-0.224 3.2s0.096 2.144 0.224 3.2zM16 3.248c1.328 1.92 2.4 4.064 3.056 6.352h-6.112c0.656-2.288 1.728-4.432 3.056-6.352zM27.072 9.6h-4.72c-0.512-2-1.248-3.92-2.208-5.696 2.944 1.008 5.392 3.040 6.928 5.696zM16 0c-8.848 0-16 7.2-16 16 0 8.837 7.163 16 16 16v0c8.837 0 16-7.163 16-16v0c0-8.837-7.163-16-16-16v0z"></path>
</svg>
