<!-- Generated by IcoMoon.io -->
<svg version="1.1" xmlns="http://www.w3.org/2000/svg" width="32" height="32" viewBox="0 0 32 32">
<title>alarm-check</title>
<path fill="#444" d="M13.68 20.020l-3.384-3.384-1.684 1.684 5.053 5.053 9.533-9.533-1.684-1.684-7.833 7.865zM16 28.711c-6.143 0-11.122-4.98-11.122-11.122s4.98-11.122 11.122-11.122c6.143 0 11.122 4.98 11.122 11.122s-4.98 11.122-11.122 11.122zM16 3.289c-7.898 0-14.3 6.402-14.3 14.3s6.402 14.3 14.3 14.3c7.898 0 14.3-6.402 14.3-14.3s-6.402-14.3-14.3-14.3zM9.454 2.32l-2.034-2.431-7.309 6.117 2.050 2.431 7.293-6.117zM31.889 6.022l-7.309-6.133-2.050 2.431 7.309 6.133 2.050-2.431z"></path>
</svg>
