<!-- Generated by IcoMoon.io -->
<svg version="1.1" xmlns="http://www.w3.org/2000/svg" width="23" height="32" viewBox="0 0 23 32">
<title>bell-o</title>
<path fill="#444" d="M11.65 28.21c0-0.125-0.097-0.221-0.221-0.221-1.093 0-1.992-0.899-1.992-1.992 0-0.125-0.097-0.221-0.221-0.221s-0.221 0.097-0.221 0.221c0 1.342 1.093 2.435 2.435 2.435 0.125 0 0.221-0.097 0.221-0.221zM2.436 24.226h17.985c-2.476-2.795-3.68-6.585-3.68-11.51 0-1.785-1.688-4.427-5.312-4.427s-5.312 2.642-5.312 4.427c0 4.925-1.204 8.716-3.68 11.51zM22.939 24.226c0 0.968-0.802 1.771-1.771 1.771h-6.198c0 1.951-1.591 3.542-3.542 3.542s-3.542-1.591-3.542-3.542h-6.198c-0.968 0-1.771-0.802-1.771-1.771 2.047-1.729 4.427-4.828 4.427-11.51 0-2.656 2.2-5.561 5.866-6.101-0.069-0.166-0.111-0.346-0.111-0.54 0-0.733 0.595-1.328 1.328-1.328s1.328 0.595 1.328 1.328c0 0.194-0.041 0.374-0.111 0.54 3.666 0.54 5.866 3.445 5.866 6.101 0 6.682 2.38 9.781 4.427 11.51z"></path>
</svg>
