<!-- Generated by IcoMoon.io -->
<svg version="1.1" xmlns="http://www.w3.org/2000/svg" width="30" height="32" viewBox="0 0 30 32">
<title>calendar-clock</title>
<path fill="#444" d="M18.043 17.455h2.229v4.102l3.625 2.051-1.114 1.891-4.739-2.676v-5.367zM19.393 13.786c-4.477 0-8.107 3.63-8.107 8.107 0 4.48 3.627 8.107 8.107 8.107 2.15 0 4.212-0.854 5.733-2.375s2.375-3.582 2.375-5.733c0-4.48-3.627-8.107-8.107-8.107zM24.729 13.252v-3.609h-22.371v17.143l8.125-0.014c-0.808-1.456-1.268-3.131-1.268-4.914 0-5.602 4.541-10.143 10.143-10.143 1.973 0 3.814 0.563 5.371 1.537v0zM12.239 29.082l-9.053 0.008c-1.649 0-2.971-1.309-2.971-2.909v-20.364c0-1.615 1.322-2.909 2.971-2.909h2.914v-2.909h2.971v2.909h9.029v-2.909h2.971v2.909h2.914c1.641 0 2.971 1.302 2.971 2.909v9.322c1.582 1.789 2.543 4.141 2.543 6.717 0 5.602-4.541 10.143-10.143 10.143-2.774 0-5.287-1.113-7.118-2.918v0z"></path>
</svg>
