<!-- Generated by IcoMoon.io -->
<svg version="1.1" xmlns="http://www.w3.org/2000/svg" width="32" height="32" viewBox="0 0 32 32">
<title>calendars</title>
<path fill="#444" d="M29.465 24.25v-14.605h-22.29v14.605h22.29zM17.046 21.693l-4.933-4.933 1.951-1.951 2.982 2.982 6.221-6.221 1.951 1.951-8.172 8.172zM31.711 5.92v17.759c0 1.635-1.325 2.96-2.96 2.96h-20.719c-1.643 0-2.96-1.332-2.96-2.96v-17.759c0-1.635 1.325-2.96 2.96-2.96h2.837v-2.96h2.96v2.96h9.055v-2.96h2.96v2.96h2.908c1.635 0 2.96 1.325 2.96 2.96zM2.392 29.683h21.576v2.317h-20.719c-1.643 0-2.96-1.332-2.96-2.96v-17.759h2.103v18.402z"></path>
</svg>
