<!-- Generated by IcoMoon.io -->
<svg version="1.1" xmlns="http://www.w3.org/2000/svg" width="29" height="32" viewBox="0 0 29 32">
<title>calendar-internet</title>
<path fill="#444" d="M24.511 13.252v-3.608h-22.368v17.14l8.124-0.014c-0.808-1.456-1.268-3.131-1.268-4.914 0-5.601 4.54-10.141 10.141-10.141 1.972 0 3.813 0.563 5.371 1.537l0-0zM2.971 29.089c-1.649 0-2.971-1.309-2.971-2.909v-20.361c0-1.614 1.322-2.909 2.971-2.909h2.914v-2.909h2.971v2.909h9.027v-2.909h2.971v2.909h2.914c1.641 0 2.971 1.302 2.971 2.909v9.32c1.582 1.789 2.542 4.14 2.542 6.716 0 5.601-4.54 10.141-10.141 10.141-2.773 0-5.287-1.113-7.117-2.917l-9.052 0.009zM23.663 23.978h3.46c0.164-0.661 0.266-1.354 0.266-2.067s-0.102-1.406-0.266-2.067h-3.46c0.082 0.682 0.143 1.364 0.143 2.067s-0.061 1.385-0.143 2.067zM21.879 29.649c1.873-0.647 3.431-1.962 4.408-3.657h-3.003c-0.326 1.284-0.794 2.517-1.405 3.657zM21.612 23.978c0.092-0.682 0.163-1.364 0.163-2.067s-0.071-1.395-0.163-2.067h-4.764c-0.102 0.672-0.163 1.364-0.163 2.067s0.061 1.385 0.163 2.067h4.764zM19.203 30.073c0.844-1.237 1.525-2.607 1.942-4.081h-3.883c0.417 1.474 1.098 2.844 1.942 4.081zM15.151 17.724c0.357-1.284 0.816-2.517 1.428-3.657-1.867 0.637-3.438 1.952-4.408 3.657h2.979zM12.172 25.992c0.969 1.695 2.541 3.010 4.408 3.657-0.612-1.14-1.071-2.373-1.428-3.657h-2.979zM11.336 23.978h3.46c-0.082-0.682-0.143-1.364-0.143-2.067s0.061-1.385 0.143-2.067h-3.46c-0.164 0.661-0.266 1.354-0.266 2.067s0.102 1.406 0.266 2.067zM19.203 13.643c-0.844 1.234-1.525 2.611-1.942 4.081h3.883c-0.417-1.47-1.098-2.847-1.942-4.081zM26.287 17.724c-0.977-1.705-2.535-3.010-4.408-3.657 0.611 1.14 1.079 2.373 1.405 3.657h3.003z"></path>
</svg>
