<!-- Generated by IcoMoon.io -->
<svg version="1.1" xmlns="http://www.w3.org/2000/svg" width="27" height="32" viewBox="0 0 27 32">
<title>columns-narrow</title>
<path fill="#444" d="M2.498 27.619h5.836v-18.857h-6.143v18.334c0 0.278 0.144 0.524 0.307 0.524v0zM16.834 8.762h-6.143v18.857h6.143v-18.857zM25.238 27.096v-18.334h-6.143v18.857h5.836c0.163 0 0.307-0.246 0.307-0.524v0zM27.334 7.19v19.905c0 1.44-1.179 2.619-2.619 2.619h-22c-1.44 0-2.619-1.179-2.619-2.619v-19.905c0-1.44 1.179-2.619 2.619-2.619h22c1.44 0 2.619 1.179 2.619 2.619z"></path>
</svg>
