<!-- Generated by IcoMoon.io -->
<svg version="1.1" xmlns="http://www.w3.org/2000/svg" width="32" height="32" viewBox="0 0 32 32">
<title>comments-stacked</title>
<path fill="#444" d="M16 32c-0.803 0-1.455-0.651-1.455-1.455v0-4.364h-5.818c-1.607 0-2.909-1.302-2.909-2.909v0-14.545c0-1.615 1.309-2.909 2.909-2.909h20.364c1.607 0 2.909 1.302 2.909 2.909v0 14.545c0 1.607-1.302 2.909-2.909 2.909v0h-5.964l-5.382 5.396c-0.291 0.276-0.655 0.422-1.018 0.422v0h-0.727zM17.455 23.273v4.48l4.48-4.48h7.156v-14.545h-20.364v14.545h8.727zM2.909 20.364h-2.909v-17.455c0-1.607 1.302-2.909 2.909-2.909v0h23.273v2.909h-23.273v17.455z"></path>
</svg>
