<!-- Generated by IcoMoon.io -->
<svg version="1.1" xmlns="http://www.w3.org/2000/svg" width="32" height="32" viewBox="0 0 32 32">
<title>content-duplicate</title>
<path fill="#444" d="M15.273 23.273h-10.182c-1.607 0-2.909-1.302-2.909-2.909v-17.455c0-1.607 1.302-2.909 2.909-2.909h17.455v2.909h-17.455v17.455h10.182v-2.909l5.818 4.364-5.818 4.364v-2.909zM26.909 29.091v-20.364h-16v8.727h-2.909v-8.727c0-1.607 1.302-2.909 2.909-2.909h16c1.607 0 2.909 1.302 2.909 2.909v20.364c0 1.607-1.302 2.909-2.909 2.909h-16c-1.607 0-2.909-1.302-2.909-2.909v-2.909h2.909v2.909h16z"></path>
</svg>
