<!-- Generated by IcoMoon.io -->
<svg version="1.1" xmlns="http://www.w3.org/2000/svg" width="32" height="32" viewBox="0 0 32 32">
<title>fit-zoom</title>
<path fill="#444" d="M3.556 21.333h-3.556v7.111c0 1.964 1.592 3.556 3.556 3.556h7.111v-3.556h-7.111zM3.556 3.556h7.111v-3.556h-7.111c-1.964 0-3.556 1.592-3.556 3.556v7.111h3.556zM28.444 0h-7.111v3.556h7.111v7.111h3.556v-7.111c0-1.964-1.592-3.556-3.556-3.556zM28.444 28.444h-7.111v3.556h7.111c1.964 0 3.556-1.592 3.556-3.556v-7.111h-3.556zM16 8.889c-3.927 0-7.111 3.184-7.111 7.111s3.184 7.111 7.111 7.111c3.927 0 7.111-3.184 7.111-7.111s-3.184-7.111-7.111-7.111zM16 19.556c-1.964 0-3.556-1.592-3.556-3.556s1.592-3.556 3.556-3.556c1.964 0 3.556 1.592 3.556 3.556s-1.592 3.556-3.556 3.556z"></path>
</svg>
