<!-- Generated by IcoMoon.io -->
<svg version="1.1" xmlns="http://www.w3.org/2000/svg" width="32" height="32" viewBox="0 0 32 32">
<title>formula-function</title>
<path fill="#444" d="M0 4.585v22.83c0 2.534 2.053 4.585 4.585 4.585h22.83c2.534 0 4.585-2.053 4.585-4.585v-22.83c0-2.534-2.053-4.585-4.585-4.585h-22.83c-2.534 0-4.585 2.053-4.585 4.585zM23.384 5.443c-2.225-0.157-4.187 1.117-4.39 2.864l-0.506 4.547h5.705v3.147h-6.069l-0.89 7.977c-0.384 3.461-4.309 6.026-8.759 5.711-2.65-0.173-4.875-1.322-6.19-2.942l3.034-2.36c0.486 1.164 1.821 2.061 3.5 2.171 2.225 0.157 4.187-1.117 4.39-2.863l0.87-7.694h-6.069v-3.147h6.413l0.546-4.83c0.384-3.461 4.309-6.026 8.759-5.711 2.65 0.173 4.875 1.322 6.19 2.942l-3.034 2.36c-0.485-1.164-1.821-2.061-3.5-2.171v0z"></path>
</svg>
