<!-- Generated by IcoMoon.io -->
<svg version="1.1" xmlns="http://www.w3.org/2000/svg" width="31" height="32" viewBox="0 0 31 32">
<title>id-card</title>
<path fill="#444" d="M2.571 5.571h25.714c1.35 0 2.571 1.221 2.571 2.571v18c0 1.35-1.221 2.571-2.571 2.571h-25.714c-1.35 0-2.571-1.221-2.571-2.571v-18c0-1.35 1.221-2.571 2.571-2.571v0zM18 12v1.286h10.286v-1.286h-10.286zM18 14.572v1.286h9v-1.286h-9zM10.286 19.599c-2.571 0-7.714 1.401-7.714 3.973v1.286h15.429v-1.286c0-2.571-5.143-3.973-7.714-3.973v0zM10.286 9.429c-2.13 0-3.857 1.727-3.857 3.857s1.727 3.857 3.857 3.857c2.13 0 3.857-1.727 3.857-3.857s-1.727-3.857-3.857-3.857z"></path>
</svg>
