<!-- Generated by IcoMoon.io -->
<svg version="1.1" xmlns="http://www.w3.org/2000/svg" width="32" height="32" viewBox="0 0 32 32">
<title>insert-column</title>
<path fill="#444" d="M3.070 1.707c-0.847 0-1.571 0.245-2.174 0.735s-0.904 1.079-0.904 1.767v19.010c0 0.688 0.301 1.277 0.904 1.767s1.328 0.735 2.174 0.735h11.778c-0.278-0.643-0.478-1.314-0.598-2.001h-11.18c-0.167 0-0.311-0.049-0.433-0.148s-0.183-0.216-0.183-0.352v-17.509h12.314v13.217c0.531-1.323 1.375-2.508 2.463-3.463v-9.754h12.314v8.535c1.018 0.788 1.857 1.484 2.463 2.599v-12.635c0-0.688-0.301-1.277-0.904-1.767s-1.328-0.735-2.174-0.735z"></path>
<path fill="#444" d="M24.004 14.285c-4.421 0-8.004 3.584-8.004 8.004s3.584 8.004 8.004 8.004c4.421 0 8.004-3.584 8.004-8.004s-3.584-8.004-8.004-8.004zM22.414 16.376h3.18v4.323h4.323v3.18h-4.323v4.323h-3.18v-4.323h-4.323v-3.18h4.323z"></path>
</svg>
