<!-- Generated by IcoMoon.io -->
<svg version="1.1" xmlns="http://www.w3.org/2000/svg" width="32" height="32" viewBox="0 0 32 32">
<title>measure</title>
<path fill="#444" d="M0 25.591l2.669-2.654 2.141 2.111 1.598-1.583-2.141-2.126 2.141-2.141 3.725 3.74 1.598-1.599-3.725-3.74 2.126-2.126 2.141 2.126 1.598-1.599-2.141-2.126 2.141-2.141 3.725 3.74 1.599-1.598-3.725-3.74 2.126-2.126 2.126 2.126 1.614-1.598-2.141-2.126 2.141-2.141 3.71 3.74 1.614-1.598-3.725-3.74 2.654-2.669 6.409 6.409-25.591 25.591-6.409-6.409z"></path>
</svg>
