<!-- Generated by IcoMoon.io -->
<svg version="1.1" xmlns="http://www.w3.org/2000/svg" width="32" height="32" viewBox="0 0 32 32">
<title>move-down</title>
<path fill="#444" d="M26.060 20.415v-14.102h-2.35v14.102h-5.876l7.051 7.051 7.051-7.051z"></path>
<path fill="#444" d="M9.608 3.963v7.051h-7.051v-7.051h7.051zM11.958 1.613h-11.751v11.751h11.751v-11.751z"></path>
<path fill="#444" d="M0.207 18.065h3.525v2.35h-3.525v-2.35z"></path>
<path fill="#444" d="M4.908 18.065h3.525v2.35h-3.525v-2.35z"></path>
<path fill="#444" d="M9.608 18.065h2.35v3.525h-2.35v-3.525z"></path>
<path fill="#444" d="M0.207 26.291h2.35v3.525h-2.35v-3.525z"></path>
<path fill="#444" d="M3.732 27.466h3.525v2.35h-3.525v-2.35z"></path>
<path fill="#444" d="M8.433 27.466h3.525v2.35h-3.525v-2.35z"></path>
<path fill="#444" d="M0.207 21.59h2.35v3.525h-2.35v-3.525z"></path>
<path fill="#444" d="M9.608 22.765h2.35v3.525h-2.35v-3.525z"></path>
</svg>
