<!-- Generated by IcoMoon.io -->
<svg version="1.1" xmlns="http://www.w3.org/2000/svg" width="32" height="32" viewBox="0 0 32 32">
<title>move-right</title>
<path fill="#444" d="M18.297 23.653h-13.525v2.332h13.525v5.829l6.763-6.995-6.763-6.995z"></path>
<path fill="#444" d="M29.568 0.337v3.497h-2.254v-3.497h2.254z"></path>
<path fill="#444" d="M29.568 5v3.497h-2.254v-3.497h2.254z"></path>
<path fill="#444" d="M29.568 9.663v2.332h-3.381v-2.332h3.381z"></path>
<path fill="#444" d="M21.678 0.337v2.332h-3.381v-2.332h3.381z"></path>
<path fill="#444" d="M20.551 3.834v3.497h-2.254v-3.497h2.254z"></path>
<path fill="#444" d="M20.551 8.497v3.497h-2.254v-3.497h2.254z"></path>
<path fill="#444" d="M26.186 0.337v2.332h-3.381v-2.332h3.381z"></path>
<path fill="#444" d="M25.059 9.663v2.332h-3.381v-2.332h3.381z"></path>
<path fill="#444" d="M11.534 9.663h-6.763v-6.995h6.763v6.995zM13.788 11.995v-11.658h-11.271v11.658h11.271z"></path>
</svg>
