<!-- Generated by IcoMoon.io -->
<svg version="1.1" xmlns="http://www.w3.org/2000/svg" width="34" height="32" viewBox="0 0 34 32">
<title>parent</title>
<path fill="#444" d="M14.090 18.862c0.584 0 3.248 0 3.99 0-3.024 0.747-6.003 2.88-6.003 4.997v3.57h-12.077v-3.57c0-3.33 9.394-4.997 14.090-4.997zM24.286 20.277c3.334 0 10 1.668 10 4.997v2.142h-20v-2.142c0-3.33 6.667-4.997 10-4.997zM24.279 17.422c-2.371 0-4.279-1.919-4.279-4.284s1.907-4.284 4.279-4.284c2.371 0 4.293 1.919 4.293 4.284s-1.922 4.284-4.293 4.284zM12.245 15.994c-3.223 0-5.816-2.559-5.816-5.711s2.593-5.711 5.816-5.711c3.223 0 5.835 2.559 5.835 5.711s-2.612 5.711-5.835 5.711z"></path>
</svg>
