<!-- Generated by IcoMoon.io -->
<svg version="1.1" xmlns="http://www.w3.org/2000/svg" width="53" height="32" viewBox="0 0 53 32">
<title>person-unknown</title>
<path fill="#444" d="M16.377 0c4.418 0 8 4.093 8 9.143s-3.582 9.143-8 9.143c-4.418 0-8-4.093-8-9.143s3.582-9.143 8-9.143v0zM16.377 20c8.846 0 16 3.589 16 8v4h-32v-4c0-4.411 7.154-8 16-8v0z"></path>
<path fill="#444" d="M39.805 29.714h4.952v-4.952h-4.952v4.952zM42.281 0c-5.47 0-9.905 4.434-9.905 9.905h4.952c0-2.735 2.217-4.952 4.952-4.952s4.952 2.217 4.952 4.952c0 4.952-7.429 4.333-7.429 12.381h4.952c0-5.571 7.429-6.19 7.429-12.381 0-5.47-4.434-9.905-9.905-9.905z"></path>
</svg>
