<!-- Generated by IcoMoon.io -->
<svg version="1.1" xmlns="http://www.w3.org/2000/svg" width="42" height="32" viewBox="0 0 42 32">
<title>pupilrecord</title>
<path fill="#444" d="M2.954 0.001c-1.625 0-2.954 1.305-2.954 2.901v26.197c0 1.595 1.329 2.901 2.954 2.901h35.936c1.625 0 2.954-1.305 2.954-2.901v-26.197c0-1.595-1.329-2.901-2.954-2.901h-35.936zM38.89 29.090h-35.936v-26.136h35.936v26.136z"></path>
<path fill="#444" d="M25.106 11.816h8.861c0.811 0 1.477-0.665 1.477-1.477s-0.666-1.477-1.477-1.477h-8.861c-0.811 0-1.477 0.665-1.477 1.477s0.666 1.477 1.477 1.477zM25.106 17.723h8.861c0.811 0 1.477-0.665 1.477-1.477s-0.666-1.477-1.477-1.477h-8.861c-0.811 0-1.477 0.665-1.477 1.477s0.666 1.477 1.477 1.477zM25.106 23.63h8.861c0.811 0 1.477-0.665 1.477-1.477s-0.666-1.477-1.477-1.477h-8.861c-0.811 0-1.477 0.665-1.477 1.477s0.666 1.477 1.477 1.477z"></path>
<path fill="#444" d="M20.962 22.583c0 0.932-0.26 1.667-0.781 2.207s-1.212 0.809-2.074 0.809h-9.345c-0.862 0-1.554-0.27-2.074-0.809s-0.781-1.275-0.781-2.207c0-0.412 0.012-0.813 0.037-1.205s0.075-0.815 0.15-1.269c0.075-0.454 0.169-0.875 0.283-1.264s0.267-0.767 0.46-1.136c0.192-0.369 0.413-0.683 0.663-0.943s0.554-0.468 0.914-0.623c0.36-0.155 0.757-0.233 1.192-0.233 0.064 0 0.214 0.083 0.449 0.25s0.501 0.353 0.797 0.559c0.296 0.206 0.681 0.392 1.155 0.559s0.95 0.25 1.427 0.25c0.478 0 0.953-0.083 1.427-0.25s0.859-0.353 1.155-0.559c0.296-0.206 0.561-0.392 0.797-0.559s0.385-0.25 0.449-0.25c0.435 0 0.832 0.078 1.192 0.233s0.665 0.363 0.914 0.623c0.25 0.26 0.47 0.575 0.663 0.943s0.346 0.747 0.46 1.136c0.114 0.388 0.209 0.809 0.283 1.264s0.125 0.877 0.15 1.269c0.025 0.392 0.037 0.794 0.037 1.205zM17.541 10.873c0 1.235-0.401 2.289-1.203 3.162s-1.77 1.31-2.903 1.31c-1.133 0-2.101-0.437-2.903-1.31s-1.203-1.927-1.203-3.162c0-1.235 0.401-2.289 1.203-3.162s1.77-1.31 2.903-1.31c1.133 0 2.101 0.437 2.903 1.31s1.203 1.927 1.203 3.162z"></path>
</svg>
