<!-- Generated by IcoMoon.io -->
<svg version="1.1" xmlns="http://www.w3.org/2000/svg" width="30" height="32" viewBox="0 0 30 32">
<title>question-circle-o</title>
<path fill="#444" d="M17.024 23.024v3.095c0 0.348-0.271 0.619-0.619 0.619h-3.095c-0.348 0-0.619-0.271-0.619-0.619v-3.095c0-0.348 0.271-0.619 0.619-0.619h3.095c0.348 0 0.619 0.271 0.619 0.619zM21.976 13.429c0 2.747-1.915 3.83-3.327 4.623-1.006 0.58-1.625 0.948-1.625 1.567v0.619c0 0.348-0.271 0.619-0.619 0.619h-3.095c-0.348 0-0.619-0.271-0.619-0.619v-1.315c0-2.379 1.702-3.134 3.076-3.753 1.161-0.542 1.877-0.909 1.877-1.78 0-1.122-1.412-1.954-2.689-1.954-0.677 0-1.393 0.213-1.838 0.522-0.426 0.29-0.832 0.716-1.548 1.606-0.116 0.155-0.29 0.232-0.484 0.232-0.135 0-0.271-0.039-0.368-0.116l-2.089-1.586c-0.252-0.193-0.31-0.561-0.135-0.832 1.586-2.496 3.811-3.714 6.752-3.714v0c3.173 0 6.732 2.515 6.732 5.881zM14.857 4.762c-6.829 0-12.381 5.552-12.381 12.381s5.552 12.381 12.381 12.381 12.381-5.552 12.381-12.381-5.552-12.381-12.381-12.381zM29.714 17.143c0 8.202-6.655 14.857-14.857 14.857s-14.857-6.655-14.857-14.857 6.655-14.857 14.857-14.857v0c8.202 0 14.857 6.655 14.857 14.857z"></path>
</svg>
