<!-- Generated by IcoMoon.io -->
<svg version="1.1" xmlns="http://www.w3.org/2000/svg" width="30" height="32" viewBox="0 0 30 32">
<title>question-circle</title>
<path fill="#444" d="M17.333 26.429v-3.714c0-0.348-0.271-0.619-0.619-0.619h-3.714c-0.348 0-0.619 0.271-0.619 0.619v3.714c0 0.348 0.271 0.619 0.619 0.619h3.714c0.348 0 0.619-0.271 0.619-0.619zM22.286 13.429c0-3.54-3.714-6.19-7.042-6.19-3.153 0-5.513 1.354-7.177 4.121-0.174 0.271-0.097 0.619 0.155 0.813l2.554 1.935c0.097 0.077 0.232 0.116 0.368 0.116 0.174 0 0.368-0.077 0.484-0.232 0.909-1.161 1.296-1.509 1.664-1.78 0.329-0.232 0.967-0.464 1.664-0.464 1.238 0 2.379 0.793 2.379 1.644 0 1.006-0.522 1.509-1.702 2.051-1.373 0.619-3.25 2.225-3.25 4.101v0.696c0 0.348 0.271 0.619 0.619 0.619h3.714c0.348 0 0.619-0.271 0.619-0.619v0c0-0.445 0.561-1.393 1.47-1.915 1.47-0.832 3.482-1.954 3.482-4.894zM29.714 17.143c0 8.202-6.655 14.857-14.857 14.857s-14.857-6.655-14.857-14.857 6.655-14.857 14.857-14.857 14.857 6.655 14.857 14.857z"></path>
</svg>
