<!-- Generated by IcoMoon.io -->
<svg version="1.1" xmlns="http://www.w3.org/2000/svg" width="43" height="32" viewBox="0 0 43 32">
<title>quicknote</title>
<path fill="#444" d="M3.2 0h36.431c1.76 0 3.2 1.44 3.2 3.2v20.185c0 1.76-1.44 3.2-3.2 3.2h-11.979l-5.991 5.415-6.892-5.415h-11.569c0 0-3.2 0.183-3.2-3.164s0-20.221 0-20.221c0-1.76 1.44-3.2 3.2-3.2zM18.708 19.515c0 1.442 1.062 2.813 2.832 2.813 1.522 0 2.584-1.371 2.584-2.813 0-1.231-1.062-2.602-2.584-2.602-1.77 0-2.832 1.371-2.832 2.602v0zM19.2 14.769h4.431v-11.323h-4.431v11.323z"></path>
</svg>
