<!-- Generated by IcoMoon.io -->
<svg version="1.1" xmlns="http://www.w3.org/2000/svg" width="32" height="32" viewBox="0 0 32 32">
<title>schedules</title>
<path fill="#444" d="M29.441 24.235v-14.578h-22.249v14.578h22.249zM31.683 5.938v17.727c0 1.632-1.323 2.954-2.954 2.954h-20.681c-1.64 0-2.954-1.329-2.954-2.954v-17.727c0-1.632 1.323-2.954 2.954-2.954h2.831v-2.954h2.954v2.954h9.038v-2.954h2.954v2.954h2.903c1.632 0 2.954 1.323 2.954 2.954zM2.417 29.658h21.536v2.313h-20.681c-1.64 0-2.954-1.329-2.954-2.954v-17.727h2.099v18.368zM25.774 20.71h-5.909v-5.909h5.909v5.909z"></path>
</svg>
