<!-- Generated by IcoMoon.io -->
<svg version="1.1" xmlns="http://www.w3.org/2000/svg" width="32" height="32" viewBox="0 0 32 32">
<title>spinner</title>
<path fill="#444" d="M16.301 9.624c-1.063 0-1.925-0.862-1.925-1.925v-5.774c0-1.063 0.862-1.925 1.925-1.925s1.925 0.862 1.925 1.925v5.774c0 1.063-0.862 1.925-1.925 1.925z"></path>
<path fill="#444" d="M16.301 32c-0.664 0-1.203-0.539-1.203-1.203v-5.774c0-0.664 0.539-1.203 1.203-1.203s1.203 0.539 1.203 1.203v5.774c0 0.664-0.539 1.203-1.203 1.203z"></path>
<path fill="#444" d="M11.972 10.664c-0.624 0-1.23-0.324-1.564-0.903l-2.887-5.001c-0.498-0.863-0.203-1.967 0.661-2.465s1.967-0.203 2.465 0.66l2.887 5.001c0.498 0.863 0.203 1.967-0.661 2.465-0.284 0.164-0.594 0.242-0.901 0.242z"></path>
<path fill="#444" d="M23.52 29.946c-0.374 0-0.738-0.194-0.939-0.542l-2.887-5.001c-0.299-0.518-0.122-1.18 0.396-1.479s1.18-0.122 1.479 0.396l2.887 5.001c0.299 0.518 0.122 1.18-0.396 1.479-0.17 0.098-0.357 0.145-0.54 0.145z"></path>
<path fill="#444" d="M8.798 13.715c-0.286 0-0.575-0.073-0.841-0.226l-5.001-2.887c-0.805-0.465-1.082-1.495-0.616-2.301s1.495-1.082 2.301-0.616l5.001 2.887c0.806 0.465 1.082 1.495 0.616 2.301-0.312 0.54-0.878 0.842-1.46 0.842z"></path>
<path fill="#444" d="M28.802 24.541c-0.163 0-0.329-0.042-0.48-0.129l-5.001-2.887c-0.46-0.266-0.618-0.854-0.352-1.315s0.854-0.618 1.315-0.352l5.001 2.887c0.46 0.266 0.618 0.854 0.352 1.315-0.178 0.309-0.502 0.481-0.834 0.481z"></path>
<path fill="#444" d="M7.639 17.925h-5.774c-0.864 0-1.564-0.7-1.564-1.564s0.7-1.564 1.564-1.564h5.774c0.864 0 1.564 0.7 1.564 1.564s-0.7 1.564-1.564 1.564z"></path>
<path fill="#444" d="M30.737 17.323c-0 0 0 0 0 0h-5.774c-0.532-0-0.962-0.431-0.962-0.962s0.431-0.962 0.962-0.962c0 0 0 0 0 0h5.774c0.532 0 0.962 0.431 0.962 0.962s-0.431 0.962-0.962 0.962z"></path>
<path fill="#444" d="M3.8 25.023c-0.499 0-0.984-0.259-1.252-0.722-0.399-0.69-0.162-1.573 0.528-1.972l5.001-2.887c0.69-0.399 1.573-0.162 1.972 0.528s0.162 1.573-0.528 1.972l-5.001 2.887c-0.227 0.131-0.476 0.194-0.72 0.194z"></path>
<path fill="#444" d="M23.803 12.993c-0.333 0-0.656-0.173-0.834-0.481-0.266-0.46-0.108-1.049 0.352-1.315l5.001-2.887c0.46-0.266 1.049-0.108 1.315 0.352s0.108 1.049-0.352 1.315l-5.001 2.887c-0.152 0.088-0.317 0.129-0.48 0.129z"></path>
<path fill="#444" d="M9.081 30.186c-0.225 0-0.452-0.057-0.66-0.177-0.633-0.365-0.85-1.175-0.484-1.808l2.887-5.001c0.365-0.633 1.175-0.85 1.808-0.484s0.85 1.175 0.484 1.808l-2.887 5.001c-0.245 0.425-0.69 0.662-1.147 0.662z"></path>
<path fill="#444" d="M20.631 9.822c-0.163 0-0.329-0.042-0.48-0.129-0.46-0.266-0.618-0.854-0.352-1.315l2.887-5.001c0.266-0.46 0.854-0.618 1.315-0.352s0.618 0.854 0.352 1.315l-2.887 5.001c-0.178 0.309-0.502 0.481-0.834 0.481z"></path>
</svg>
