<!-- Generated by IcoMoon.io -->
<svg version="1.1" xmlns="http://www.w3.org/2000/svg" width="32" height="32" viewBox="0 0 32 32">
<title>spreadsheet-view</title>
<path fill="#444" d="M12.8 3.2v6.4h6.4v-6.4h-6.4zM22.4 3.2v6.4h6.4v-6.4h-6.4zM22.4 12.8v6.4h6.4v-6.4h-6.4zM22.4 22.4v6.4h6.4v-6.4h-6.4zM19.2 28.8v-6.4h-6.4v6.4h6.4zM9.6 28.8v-6.4h-6.4v6.4h6.4zM9.6 19.2v-6.4h-6.4v6.4h6.4zM9.6 9.6v-6.4h-6.4v6.4h6.4zM12.8 19.2h6.4v-6.4h-6.4v6.4zM3.2 0h25.6c1.767 0 3.2 1.433 3.2 3.2v25.6c0 1.767-1.433 3.2-3.2 3.2h-25.6c-1.728 0-3.2-1.44-3.2-3.2v-25.6c0-1.767 1.433-3.2 3.2-3.2v0z"></path>
</svg>
