<!-- Generated by IcoMoon.io -->
<svg version="1.1" xmlns="http://www.w3.org/2000/svg" width="30" height="32" viewBox="0 0 30 32">
<title>table</title>
<path fill="#444" d="M9.143 26.857v-3.429c0-0.321-0.25-0.571-0.571-0.571h-5.714c-0.321 0-0.571 0.25-0.571 0.571v3.429c0 0.321 0.25 0.571 0.571 0.571h5.714c0.321 0 0.571-0.25 0.571-0.571zM9.143 20v-3.429c0-0.321-0.25-0.571-0.571-0.571h-5.714c-0.321 0-0.571 0.25-0.571 0.571v3.429c0 0.321 0.25 0.571 0.571 0.571h5.714c0.321 0 0.571-0.25 0.571-0.571zM18.286 26.857v-3.429c0-0.321-0.25-0.571-0.571-0.571h-5.714c-0.321 0-0.571 0.25-0.571 0.571v3.429c0 0.321 0.25 0.571 0.571 0.571h5.714c0.321 0 0.571-0.25 0.571-0.571zM9.143 13.143v-3.429c0-0.321-0.25-0.571-0.571-0.571h-5.714c-0.321 0-0.571 0.25-0.571 0.571v3.429c0 0.321 0.25 0.571 0.571 0.571h5.714c0.321 0 0.571-0.25 0.571-0.571zM18.286 20v-3.429c0-0.321-0.25-0.571-0.571-0.571h-5.714c-0.321 0-0.571 0.25-0.571 0.571v3.429c0 0.321 0.25 0.571 0.571 0.571h5.714c0.321 0 0.571-0.25 0.571-0.571zM27.429 26.857v-3.429c0-0.321-0.25-0.571-0.571-0.571h-5.714c-0.321 0-0.571 0.25-0.571 0.571v3.429c0 0.321 0.25 0.571 0.571 0.571h5.714c0.321 0 0.571-0.25 0.571-0.571zM18.286 13.143v-3.429c0-0.321-0.25-0.571-0.571-0.571h-5.714c-0.321 0-0.571 0.25-0.571 0.571v3.429c0 0.321 0.25 0.571 0.571 0.571h5.714c0.321 0 0.571-0.25 0.571-0.571zM27.429 20v-3.429c0-0.321-0.25-0.571-0.571-0.571h-5.714c-0.321 0-0.571 0.25-0.571 0.571v3.429c0 0.321 0.25 0.571 0.571 0.571h5.714c0.321 0 0.571-0.25 0.571-0.571zM27.429 13.143v-3.429c0-0.321-0.25-0.571-0.571-0.571h-5.714c-0.321 0-0.571 0.25-0.571 0.571v3.429c0 0.321 0.25 0.571 0.571 0.571h5.714c0.321 0 0.571-0.25 0.571-0.571zM29.714 7.428v19.429c0 1.572-1.286 2.857-2.857 2.857h-24c-1.571 0-2.857-1.286-2.857-2.857v-19.429c0-1.572 1.286-2.857 2.857-2.857h24c1.572 0 2.857 1.286 2.857 2.857z"></path>
</svg>
