<!-- Generated by IcoMoon.io -->
<svg version="1.1" xmlns="http://www.w3.org/2000/svg" width="42" height="32" viewBox="0 0 42 32">
<title>takeregister</title>
<path fill="#444" d="M41.749 4.181l-22.561 22.403-12.692-12.544 4.221-4.181 8.471 8.363 18.34-18.222z"></path>
<path fill="#444" d="M31.275 32c4.071 0 7.385-3.373 7.385-7.385v-12.308l-3.282 3.282v9.026c-0.276 2.015-1.993 3.764-4.103 4.103h-23.795c-2.109-0.339-3.827-2.088-4.103-4.103v-17.231c0.276-2.017 1.992-3.764 4.103-4.103h21.333l3.282-3.282c-0.118 0.035-0.466 0-0.82 0h-23.795c-4.071 0-7.385 3.373-7.385 7.385v17.231c-0.001 4.012 3.313 7.385 7.385 7.385h23.795z"></path>
</svg>
