<!-- Generated by IcoMoon.io -->
<svg version="1.1" xmlns="http://www.w3.org/2000/svg" width="48" height="32" viewBox="0 0 48 32">
<title>teacher</title>
<path fill="#444" d="M0.45 19.2c0-4.7 3.858-4.7 3.858-4.7 1.159 0 1.969 1.275 4.615 1.275s3.056-1.275 4.419-1.275c0.987 0 2.897 1.292 3.388 1.762 1.331 1.272 4.74 4.538 4.74 4.538h1.649l4.843-4.7h3.194v3.1c0 0-4.74 4.75-6.389 6.35s-3.194 1.6-4.843 0c-1.649-1.6-3.194-3.1-3.194-3.1v9.45h-16.28v-12.7z"></path>
<path fill="#444" d="M9.146 0.35c3.1 0 5.662 2.85 5.662 6.3s-2.561 6.3-5.662 6.3c-3.1 0-5.662-2.85-5.662-6.3 0-3.55 2.471-6.3 5.662-6.3v0z"></path>
<path fill="#444" d="M43.854 3.446v25.108h-17.723l-2.954 3.446h20.677c1.864 0 3.446-1.6 3.446-3.446v-25.108c0-1.846-1.582-3.446-3.446-3.446h-19.692c-1.846 0-3.446 1.6-3.446 3.446v11.323l1.583 1.745 1.864-1.745v-11.323h19.692z"></path>
</svg>
