<!-- Generated by IcoMoon.io -->
<svg version="1.1" xmlns="http://www.w3.org/2000/svg" width="27" height="32" viewBox="0 0 27 32">
<title>th</title>
<path fill="#444" d="M8.104 23.221v2.805c0 0.774-0.628 1.403-1.403 1.403h-4.675c-0.774 0-1.403-0.628-1.403-1.403v-2.805c0-0.774 0.628-1.403 1.403-1.403h4.675c0.774 0 1.403 0.628 1.403 1.403zM8.104 15.74v2.805c0 0.774-0.628 1.403-1.403 1.403h-4.675c-0.774 0-1.403-0.628-1.403-1.403v-2.805c0-0.774 0.628-1.403 1.403-1.403h4.675c0.774 0 1.403 0.628 1.403 1.403zM17.455 23.221v2.805c0 0.774-0.628 1.403-1.403 1.403h-4.675c-0.774 0-1.403-0.628-1.403-1.403v-2.805c0-0.774 0.628-1.403 1.403-1.403h4.675c0.774 0 1.403 0.628 1.403 1.403zM8.104 8.26v2.805c0 0.774-0.628 1.403-1.403 1.403h-4.675c-0.774 0-1.403-0.628-1.403-1.403v-2.805c0-0.774 0.628-1.403 1.403-1.403h4.675c0.774 0 1.403 0.628 1.403 1.403zM17.455 15.74v2.805c0 0.774-0.628 1.403-1.403 1.403h-4.675c-0.774 0-1.403-0.628-1.403-1.403v-2.805c0-0.774 0.628-1.403 1.403-1.403h4.675c0.774 0 1.403 0.628 1.403 1.403zM26.805 23.221v2.805c0 0.774-0.628 1.403-1.403 1.403h-4.675c-0.774 0-1.403-0.628-1.403-1.403v-2.805c0-0.774 0.628-1.403 1.403-1.403h4.675c0.774 0 1.403 0.628 1.403 1.403zM17.455 8.26v2.805c0 0.774-0.628 1.403-1.403 1.403h-4.675c-0.774 0-1.403-0.628-1.403-1.403v-2.805c0-0.774 0.628-1.403 1.403-1.403h4.675c0.774 0 1.403 0.628 1.403 1.403zM26.805 15.74v2.805c0 0.774-0.628 1.403-1.403 1.403h-4.675c-0.774 0-1.403-0.628-1.403-1.403v-2.805c0-0.774 0.628-1.403 1.403-1.403h4.675c0.774 0 1.403 0.628 1.403 1.403zM26.805 8.26v2.805c0 0.774-0.628 1.403-1.403 1.403h-4.675c-0.774 0-1.403-0.628-1.403-1.403v-2.805c0-0.774 0.628-1.403 1.403-1.403h4.675c0.774 0 1.403 0.628 1.403 1.403z"></path>
</svg>
