<!-- Generated by IcoMoon.io -->
<svg version="1.1" xmlns="http://www.w3.org/2000/svg" width="41" height="32" viewBox="0 0 41 32">
<title>user-times</title>
<path fill="#444" d="M29.061 18.775c3.755 0 11.429 1.959 11.429 5.714v2.939h-22.857v-2.939c0-3.755 7.673-5.714 11.429-5.714zM29.061 16c-3.265 0-5.714-2.612-5.714-5.714 0-3.265 2.449-5.714 5.714-5.714s5.714 2.612 5.714 5.714c0 3.265-2.449 5.714-5.714 5.714zM8.816 11.102l4.898-4.898 3.265 3.265-4.898 4.898 4.898 4.898-3.265 3.265-4.898-4.898-4.898 4.898-3.265-3.265 4.898-4.898-4.898-4.898 3.265-3.265 4.898 4.898z"></path>
</svg>
