<svg xmlns="http://www.w3.org/2000/svg" width="64" height="64" viewBox="0 0 64 64">
  <g fill="none" fill-rule="evenodd">
    <path fill="#FFF" d="M64 32a32 32 0 1 1-64 0 32 32 0 0 1 64 0z"/>
    <g transform="translate(5 4.5)">
      <path fill="#65B2FF" d="M55 27.5a27.5 27.5 0 1 1-55 0 27.5 27.5 0 0 1 55 0z"/>
      <path fill="#0F9BE8" d="M55 27.6A27.3 27.3 0 0 1 27.5 55 27.5 27.5 0 0 1 3.6 14a27.5 27.5 0 0 0 47.8 0A27 27 0 0 1 55 27.6z"/>
      <path fill="#0066E8" d="M3 41a27.5 27.5 0 0 0 24 14 27.5 27.5 0 0 0 24-14H3z"/>
      <path fill="#747E9E" d="M42 50.8A28.2 28.2 0 0 1 27 55a29 29 0 0 1-15-4.2l2.5-2c.6-.5 1.3-.8 2.1-.8h20.8c.8 0 1.5.3 2.1.8l2.5 2z"/>
      <path fill="#474F6F" d="M43 50.8A28.4 28.4 0 0 1 28 55c-3.2 0-6.2-.5-9-1.4V48h19.4c.7 0 1.5.3 2.1.8l2.5 2z"/>
      <path fill="#323B5A" d="M42 50.8A28.2 28.2 0 0 1 27 55v-7h10.4c.8 0 1.5.3 2.1.8l2.5 2z"/>
      <path fill="#FFF" d="M42 50.7c-1.5 1-3 1.7-4.7 2.3H16.7c-1.6-.6-3.2-1.4-4.7-2.3l2.5-2c.6-.4 1.3-.7 2.1-.7h20.8c.8 0 1.5.3 2.1.7l2.5 2z"/>
      <path fill="#D0F6FF" d="M42 50.7c-1.5 1-3 1.7-4.7 2.3H18l.2-.2 3.7-4.8h15.5c.8 0 1.5.3 2.1.7l2.5 2z"/>
      <path fill="#8FC9F7" d="M42 50.7c-1.5 1-3 1.7-4.7 2.3H27v-5h10.4c.8 0 1.5.3 2.1.7l2.5 2z"/>
      <path fill="#FFF" d="M46 46.8v.2h-7v-.2c0-.6.2-1.3.4-1.8.6-1.2 1.8-2 3.1-2 1.4 0 2.5.8 3 2 .3.5.5 1.2.5 1.8z"/>
      <path fill="#D0F6FF" d="M47 46.8v.2h-6v-.2a4.3 4.3 0 0 1 2.3-3.8 3.8 3.8 0 0 1 3.7 3.8z"/>
      <path fill="#8FC9F7" d="M47 46.8v.2h-4v-4a4 4 0 0 1 3.5 2c.3.5.5 1.2.5 1.8z"/>
      <path fill="#FFE955" d="M46 46.8v.2h-7v-.2c0-.6.2-1.3.4-1.8h6.2c.2.5.4 1.2.4 1.8z"/>
      <path fill="#FFD112" d="M47 46.8v.2h-6v-.2c0-.7.1-1.3.4-1.8h5.1c.3.5.5 1.2.5 1.8z"/>
      <path fill="#FF9F00" d="M47 46.8v.2h-4v-2h3.5c.3.5.5 1.2.5 1.8z"/>
      <polygon fill="#8FC9F7" points="22 39 32 39 32 45 22 45"/>
      <polygon fill="#0F9BE8" points="27 39 32 39 32 45 27 45"/>
      <path fill="#FFF" d="M44 18.9v20.2a2 2 0 0 1-1.9 1.9H11.9a2 2 0 0 1-1.9-1.9V18.9a2 2 0 0 1 1.9-1.9h30.2c1 0 1.9.9 1.9 1.9z"/>
      <path fill="#D0F6FF" d="M45 18.9v20.2a2 2 0 0 1-2 1.9H19V17h24c1.1 0 2 .9 2 1.9z"/>
      <path fill="#8FC9F7" d="M44 18.9v20.2a2 2 0 0 1-1.9 1.9H27V17h15.1c1 0 1.9.9 1.9 1.9z"/>
      <path fill="#747E9E" d="M41 21.4v15.2c0 .8-.6 1.4-1.5 1.4h-25c-.8 0-1.5-.6-1.5-1.4V21.4c0-.8.7-1.4 1.5-1.4h25c.9 0 1.5.6 1.5 1.4z"/>
      <path fill="#474F6F" d="M42 21.4v15.2c0 .8-.7 1.4-1.5 1.4H19V20h21.5c.8 0 1.5.6 1.5 1.4z"/>
      <path fill="#323B5A" d="M42 21.4v15.2c0 .8-.6 1.4-1.5 1.4H28V20h12.5c.9 0 1.5.6 1.5 1.4z"/>
      <polygon fill="#FFF" points="17 43 37 43 37 45 17 45"/>
      <polygon fill="#D0F6FF" points="23 43 38 43 38 45 23 45"/>
      <polygon fill="#8FC9F7" points="28 43 38 43 38 45 28 45"/>
      <path fill="#FFF" d="M37 22.9v10.2c0 .5-.4.9-1 .9H18a1 1 0 0 1-1-.9V22.9c0-.5.4-.9 1-.9h18c.6 0 1 .4 1 .9z"/>
      <path fill="#FF3445" d="M37 23v2H17v-2c0-.5.4-1 1-1h18c.6 0 1 .5 1 1z"/>
      <polygon fill="#474F6F" points="19 26 26 26 26 27 19 27"/>
      <polygon fill="#474F6F" points="19 29 30 29 30 30 19 30"/>
      <polygon fill="#474F6F" points="19 32 30 32 30 33 19 33"/>
      <path fill="#FFF" fill-rule="nonzero" d="M35.7 6.8A12.3 12.3 0 0 0 27 3a12 12 0 0 0-8.7 3.8c-.4.4-.4 1.1 0 1.6.2.2.5.3.8.3.2 0 .5-.1.7-.3a9.9 9.9 0 0 1 14.4 0c.4.4 1 .4 1.5 0 .4-.5.4-1.2 0-1.6zm-6 6.3a3.7 3.7 0 0 0-5.4 0c-.4.4-.4 1.1 0 1.6a1 1 0 0 0 1.5 0 1.6 1.6 0 0 1 2.4 0 1 1 0 0 0 1.5 0c.4-.5.4-1.2 0-1.6z"/>
      <path fill="#FFF" d="M32 12c-.4 0-.6-.1-.8-.3a6 6 0 0 0-8.4 0c-.4.4-1 .4-1.5 0a1 1 0 0 1 0-1.5c3.2-3 8.2-3 11.4 0 .4.4.4 1 0 1.5-.2.2-.5.3-.8.3z"/>
      <path fill="#FFF" d="M29 15a1 1 0 0 1-.8-.3 1.6 1.6 0 0 0-2.4 0 1 1 0 0 1-1.5 0c-.4-.4-.4-1.1 0-1.6a3.7 3.7 0 0 1 5.4 0c.4.5.4 1.2 0 1.6a1 1 0 0 1-.8.3z"/>
    </g>
  </g>
</svg>
