<svg xmlns="http://www.w3.org/2000/svg" width="52" height="52" viewBox="0 0 52 52">
  <g fill="none" fill-rule="evenodd">
    <polygon fill="#686C83" points="41.6 51 10.4 51 13 43.5 39 43.5"/>
    <path fill="#FF5D5D" d="M37.9 43.5H14V27.7a11.9 11.9 0 0 1 23.8 0v15.8z"/>
    <path fill="#FFF" d="M26 31.2a2 2 0 0 1-2-2v-5a2 2 0 1 1 4 0v5c0 1-.8 2-2 2zm0 8a2 2 0 1 1 0-4 2 2 0 0 1 0 4z"/>
    <path fill="#000" fill-rule="nonzero" d="M40 43.1a1 1 0 0 0-1-.6V27.7a13 13 0 0 0-25.8 0v14.8H13a1 1 0 0 0-1 .6l-2.6 7.6a1 1 0 0 0 1 1.3h31.2a1 1 0 0 0 1-1.3L40 43zM15.1 27.7a10.9 10.9 0 0 1 21.8 0v14.8H15V27.7zM11.8 50l1.9-5.5h24.6l1.9 5.5H11.8z"/>
    <path fill="#000" d="M26 8.1c.6 0 1-.4 1-1v-6a1 1 0 0 0-2 0v6c0 .6.4 1 1 1zm0 3.9a1 1 0 0 0 1-1 1 1 0 0 0-1.7-.7 1 1 0 0 0 0 1.4c.2.3.4.4.7.4zM10.7 28.2c0-.6-.4-1-1-1H5a1 1 0 0 0 0 2h4.7c.6 0 1-.4 1-1zm-9.7-1a1 1 0 0 0-1 1 1 1 0 0 0 1 1 1 1 0 0 0 1-1 1 1 0 0 0-1-1zM17.3 9.8a1 1 0 1 0 1.9-.8l-1.4-3.3a1 1 0 0 0-1.9.8l1.4 3.3zM7.2 21.4a1 1 0 0 0 .4-2l-3.3-1.3a1 1 0 0 0-.8 1.9l3.3 1.4h.4zm40.2 5.8h-4.7a1 1 0 0 0 0 2h4.7a1 1 0 0 0 0-2zm4.3.3a1 1 0 0 0-1.4 0 1 1 0 0 0 0 1.4 1 1 0 0 0 1.4 0 1 1 0 0 0 0-1.4zM40.4 14.8c.2 0 .5 0 .7-.3l5-5a1 1 0 0 0-1.5-1.4l-5 5a1 1 0 0 0 .8 1.7zM11 14.5a1 1 0 0 0 1.3 0c.4-.3.4-1 0-1.4l-5-5A1 1 0 0 0 6 9.6l5 5zm22.4-4.1a1 1 0 0 0 1.3-.6l1.4-3.3a1 1 0 0 0-1.9-.8L32.8 9a1 1 0 0 0 .6 1.4zm14.3 7.7l-3.3 1.4a1 1 0 0 0 .8 1.9l3.3-1.4a1 1 0 0 0-.8-1.9z"/>
    <path fill="#000" fill-rule="nonzero" d="M26 21.2a3 3 0 0 0-3 3v5a3 3 0 0 0 6 0v-5a3 3 0 0 0-3-3zm1 8a1 1 0 0 1-2 0v-5a1 1 0 0 1 2 0v5zm-1 5a3 3 0 1 0 0 6.1 3 3 0 0 0 0-6zm0 4a1 1 0 1 1 0-2 1 1 0 0 1 0 2z"/>
  </g>
</svg>
