<svg xmlns="http://www.w3.org/2000/svg" width="52" height="52" viewBox="0 0 52 52">
  <g fill="none" fill-rule="evenodd">
    <path fill="#FF6C6C" d="M49.5 2.5c2 2 2 5.2 0 7.2l-3.6 3.6L38.7 6l3.6-3.6c2-2 5.2-2 7.2 0z"/>
    <path fill="#FFF" d="M35.1 9.7L38.7 6l7.2 7.2-3.6 3.6-7.2-7.2z"/>
    <path fill="#6EBA7B" d="M42.3 16.9L14.7 44.5l-7.2-7.2L35 9.7l7.2 7.2z"/>
    <polygon fill="#FFCEBF" points="14.7 44.5 8.8 47.3 4.7 43.2 7.5 37.3"/>
    <polygon fill="#3A5361" points="4.7 43.2 8.8 47.3 1 51"/>
    <path fill="#000" d="M13.2 37.3a1 1 0 1 0 1.5 1.5 1 1 0 0 0-1.5-1.5zM33.6 52a1 1 0 1 0 0-2h-4.1a1 1 0 0 0 0 2h4z"/>
    <path fill="#000" fill-rule="nonzero" d="M41.6 1.8L6.8 36.6l-.2.3L0 50.5A1 1 0 0 0 1 52h24.3a1 1 0 1 0 0-2H5.5l9.6-4.6s.2 0 .3-.2l34.8-34.8a6 6 0 1 0-8.6-8.6zm.7 13.6l-5.7-5.7 2.1-2.2 5.8 5.8-2.2 2.1zM9 46.1L6 43l1.8-4 5.1 5.2L9 46.1zm5.7-3l-5.8-5.8 26.2-26.2 2.2 2.2L16 34.5a1 1 0 0 0 1.4 1.4l21.2-21.2L41 17 14.7 43zM5 44.9l2 2-3.8 2 1.8-4zM48.8 9l-2.9 3-5.7-6L43 3.2A4 4 0 0 1 48.8 9z"/>
  </g>
</svg>
