<svg xmlns="http://www.w3.org/2000/svg" width="41" height="52" viewBox="0 0 41 52">
  <g fill="none" fill-rule="evenodd">
    <path fill="#67E5DD" d="M14.1 37.2h12.5v8.6c-.7 3-3.2 5.2-6.3 5.2-3 0-5.5-2.2-6.2-5.2v-8.6z"/>
    <path fill="#FEC96B" d="M20.3 7.6c7.1 0 12.8 5.7 12.8 12.7 0 8.9-6.5 11.8-6.5 15.5v1.4H14v-1.4c0-3.7-6.5-6.6-6.5-15.5 0-7 5.7-12.7 12.7-12.7z"/>
    <path fill="#000" fill-rule="nonzero" d="M20.3 6.6c-6 0-11.2 3.8-13 9.4a1 1 0 0 0 1.9.7A11.7 11.7 0 0 1 32 20.3c0 5-2.2 8-4 10.5-1.4 1.7-2.5 3.2-2.5 5v.4h-4.2v-2.3a1 1 0 1 0-2 0v2.3H15v-.4c0-1.8-1.2-3.3-2.5-5C11.3 29 9.8 27 9.1 24a1 1 0 1 0-2 .5c.8 3.3 2.5 5.5 4 7.4 1 1.5 2 2.7 2 3.8v10.4a7.6 7.6 0 0 0 2.6 4.2 7.3 7.3 0 0 0 11.9-4.2V35.8c0-1.1 1-2.3 2-3.8 2-2.5 4.5-6 4.5-11.7 0-7.6-6.2-13.7-13.8-13.7zm-5.2 36h10.4v2.2H15.1v-2.2zm10.4-2H15.1v-2.4h10.4v2.3zM20.3 50c-2 0-3.9-1.3-4.8-3.1h9.7a5.4 5.4 0 0 1-4.9 3z"/>
    <path fill="#000" d="M20.3 4.7c.6 0 1-.4 1-1V1a1 1 0 1 0-2 0v2.7c0 .6.5 1 1 1zM3.7 19.3H1a1 1 0 1 0 0 2h2.7a1 1 0 1 0 0-2zM25 22.4c0-.6-.5-1-1-1h-7.3a1 1 0 1 0 0 2h2.6v2.3a1 1 0 1 0 2 0v-2.3H24c.5 0 1-.4 1-1zM7.9 9.3a1 1 0 0 0 1.4 0c.4-.4.4-1 0-1.4l-1.9-2A1 1 0 1 0 6 7.5l1.9 2zM7.2 32l-2 2a1 1 0 0 0 1.5 1.4l2-1.9a1 1 0 1 0-1.5-1.4zM32.1 9.6c.3 0 .5 0 .7-.3l2-1.9A1 1 0 0 0 33.2 6l-2 1.9a1 1 0 0 0 .8 1.7zM33.5 32a1 1 0 1 0-1.4 1.5l1.9 2a1 1 0 0 0 1.4 0c.4-.5.4-1.1 0-1.5l-1.9-2zm6.2-12.7H37a1 1 0 1 0 0 2h2.7a1 1 0 1 0 0-2zm-19.4 9.5a1 1 0 0 0 0 2 1 1 0 0 0 0-2zM7.6 21.4a1 1 0 0 0 0-2 1 1 0 0 0 0 2z"/>
  </g>
</svg>
