<svg viewBox="-186 0 512 512" xmlns="http://www.w3.org/2000/svg"><path d="m130 90h-120v-40c0-22.089844 17.910156-40 40-40h40c22.089844 0 40 17.910156 40 40zm0 0" fill="#d9d9e2"/><path d="m10 90h120v252h-120zm0 0" fill="#f9c700"/><path d="m130 342-40-20-20 20-20-20-40 20 30 80h60zm0 0" fill="#fad79b"/><path d="m100 422h-60l30 80zm0 0" fill="#6b6b77"/><path d="m70 60c5.511719 0 10-4.488281 10-10s-4.488281-10-10-10-10 4.488281-10 10 4.488281 10 10 10zm0 0"/><path d="m140 341.851562v-291.851562c0-27.570312-22.429688-50-50-50h-40c-27.570312 0-50 22.429688-50 50v291.851562c0 .011719 0 2.148438.636719 3.660157l60 160c1.464843 3.902343 5.195312 6.488281 9.363281 6.488281s7.898438-2.585938 9.363281-6.488281c0 0 59.996094-159.996094 60-160 .144531-.386719.636719-1.511719.636719-3.660157zm-40-26.03125v-215.820312h20v225.820312zm-80 10v-225.820312h20v215.820312zm60-225.820312v217.855469l-10 10-10-10v-217.855469zm-30-80h40c13.035156 0 24.152344 8.359375 28.28125 20h-8.28125c-5.511719 0-10 4.488281-10 10s4.488281 10 10 10h10v20h-100v-20h10c5.511719 0 10-4.488281 10-10s-4.488281-10-10-10h-8.28125c4.128906-11.640625 15.246094-20 28.28125-20zm20 453.519531-15.570312-41.519531h31.140624zm23.070312-61.519531h-46.140624l-24.40625-65.082031 25.5-12.75 14.90625 14.902343c3.902343 3.90625 10.234374 3.90625 14.140624 0l14.902344-14.902343 25.503906 12.75zm0 0"/></svg>