<svg xmlns="http://www.w3.org/2000/svg" width="392" height="512" viewBox="0 0 392 512">
  <path fill="#F5A623" d="M334.4 56.3A192.4 192.4 0 0 0 195.2 0 194.1 194.1 0 0 0 57.6 56.8 191 191 0 0 0 .5 193.3c0 77.3 44.4 119 76.8 149.4 22.5 21 36.2 34.8 36.2 50.3v59c0 33 27 60 60 60h45c33 0 60-27 60-60v-61l-.1-2.3c2-11.8 12-23.3 28.8-39.4 8-7.6 53.8-57.3 65-76 11.2-18.7-21.6-39.9-35.4-18.6-13.8 21.3-54.1 62.7-57.2 65.6-16.5 15.8-31.8 31.7-38.3 51.7h-25.8V202.3l20-20 25.9 25.8a20 20 0 0 0 28.2 0 20 20 0 0 0 0-28.2l-40-40a20 20 0 0 0-28.2 0l-25.9 25.8-25.9-25.8a20 20 0 0 0-28.2 0l-40 40a20 20 0 1 0 28.2 28.2l25.9-25.8 20 20V372h-25.3c-7.4-22.7-26-40.2-45.5-58.4-31.6-29.7-64.2-60.3-64.2-120.3 0-40.7 16-79 45.3-108a154.4 154.4 0 0 1 112-45.3c41 0 79.4 15.8 108.4 44.7A152 152 0 0 1 351.4 189a20 20 0 0 0-.4 4.2 129 129 0 0 1-14.2 61.4 20 20 0 0 0 35.4 18.6c12-22.8 18.1-47.5 18.7-75.3.4-1.6.6-3.1.6-4.7 0-51.8-20.3-100.5-57.1-137zM153.5 412h85v40c0 11-9 20-20 20h-45c-11 0-20-9-20-20v-40z"/>
</svg>
